<?xml version="1.0" encoding="UTF-8" standalone="no"?>
<!DOCTYPE svg PUBLIC "-//W3C//DTD SVG 1.1//EN"
 "http://www.w3.org/Graphics/SVG/1.1/DTD/svg11.dtd">
<!-- Generated by graphviz version 2.28.0 (20110507.0327)
 -->
<!-- Title: G Pages: 1 -->
<svg width="492pt" height="1824pt"
 viewBox="0.00 0.00 492.00 1824.00" xmlns="http://www.w3.org/2000/svg" xmlns:xlink="http://www.w3.org/1999/xlink">
<g id="graph1" class="graph" transform="scale(1 1) rotate(0) translate(4 1820)">
<title>G</title>
<polygon fill="white" stroke="white" points="-4,5 -4,-1820 489,-1820 489,5 -4,5"/>
<g id="graph2" class="cluster"><title>cluster_global</title>
<polyline fill="none" stroke="gray" points="20,-8 464,-8 "/>
<path fill="none" stroke="gray" d="M464,-8C470,-8 476,-14 476,-20"/>
<polyline fill="none" stroke="gray" points="476,-20 476,-1796 "/>
<path fill="none" stroke="gray" d="M476,-1796C476,-1802 470,-1808 464,-1808"/>
<polyline fill="none" stroke="gray" points="464,-1808 20,-1808 "/>
<path fill="none" stroke="gray" d="M20,-1808C14,-1808 8,-1802 8,-1796"/>
<polyline fill="none" stroke="gray" points="8,-1796 8,-20 "/>
<path fill="none" stroke="gray" d="M8,-20C8,-14 14,-8 20,-8"/>
<text text-anchor="middle" x="242" y="-1795.2" font-family="Times New Roman,serif" font-size="11.00" fill="gray">global</text>
</g>
<!-- \\Application -->
<g id="node2" class="node"><title>\\Application</title>
<a xlink:href="includes.application.html" xlink:title="Application" target="_parent">
<polygon fill="none" stroke="black" points="107.5,-1375 16.5,-1375 16.5,-1339 107.5,-1339 107.5,-1375"/>
<text text-anchor="middle" x="62" y="-1354.2" font-family="Courier,monospace" font-size="11.00">Application</text>
</a>
</g>
<!-- \\Cache -->
<g id="node3" class="node"><title>\\Cache</title>
<a xlink:href="includes.cache.html" xlink:title="Cache" target="_parent">
<polygon fill="none" stroke="black" points="249,-1726 195,-1726 195,-1690 249,-1690 249,-1726"/>
<text text-anchor="middle" x="222" y="-1705.2" font-family="Courier,monospace" font-size="11.00">Cache</text>
</a>
</g>
<!-- \\Cache&#45;&gt;\\Application -->
<g id="edge3" class="edge"><title>\\Cache&#45;&gt;\\Application</title>
<path fill="none" stroke="black" d="M194.642,-1694.27C189.252,-1690.53 184.01,-1686.09 180,-1681 106.812,-1588.14 76.8878,-1445.48 67.0534,-1385.31"/>
<polygon fill="none" stroke="black" points="70.4538,-1384.41 65.445,-1375.07 63.5385,-1385.49 70.4538,-1384.41"/>
</g>
<!-- \\Control -->
<g id="node4" class="node"><title>\\Control</title>
<a xlink:href="includes.controls.control.html" xlink:title="Control" target="_parent">
<polygon fill="none" stroke="black" points="254,-1672 190,-1672 190,-1636 254,-1636 254,-1672"/>
<text text-anchor="middle" x="222" y="-1651.2" font-family="Courier,monospace" font-size="11.00">Control</text>
</a>
</g>
<!-- \\Control&#45;&gt;\\Application -->
<g id="edge5" class="edge"><title>\\Control&#45;&gt;\\Application</title>
<path fill="none" stroke="black" d="M211.354,-1635.87C184.58,-1585.54 109.224,-1443.89 77.4342,-1384.13"/>
<polygon fill="none" stroke="black" points="80.5069,-1382.46 72.7203,-1375.27 74.327,-1385.74 80.5069,-1382.46"/>
</g>
<!-- \\File -->
<g id="node5" class="node"><title>\\File</title>
<a xlink:href="includes.controls.file.html" xlink:title="File" target="_parent">
<polygon fill="none" stroke="black" points="429,-1780 375,-1780 375,-1744 429,-1744 429,-1780"/>
<text text-anchor="middle" x="402" y="-1759.2" font-family="Courier,monospace" font-size="11.00">File</text>
</a>
</g>
<!-- \\File&#45;&gt;\\Control -->
<g id="edge7" class="edge"><title>\\File&#45;&gt;\\Control</title>
<path fill="none" stroke="black" d="M374.989,-1752.91C362.811,-1748.23 348.311,-1742.03 336,-1735 301.259,-1715.17 296.719,-1704.01 264,-1681 262.562,-1679.99 261.09,-1678.97 259.598,-1677.94"/>
<polygon fill="none" stroke="black" points="261.185,-1674.79 250.943,-1672.07 257.258,-1680.58 261.185,-1674.79"/>
</g>
<!-- \\Relations -->
<g id="node6" class="node"><title>\\Relations</title>
<a xlink:href="includes.controls.relations.html" xlink:title="Relations" target="_parent">
<polygon fill="none" stroke="black" points="440.5,-1726 363.5,-1726 363.5,-1690 440.5,-1690 440.5,-1726"/>
<text text-anchor="middle" x="402" y="-1705.2" font-family="Courier,monospace" font-size="11.00">Relations</text>
</a>
</g>
<!-- \\Relations&#45;&gt;\\Control -->
<g id="edge9" class="edge"><title>\\Relations&#45;&gt;\\Control</title>
<path fill="none" stroke="black" d="M363.251,-1696.55C334.094,-1687.7 293.806,-1675.48 263.888,-1666.4"/>
<polygon fill="none" stroke="black" points="264.756,-1663.01 254.171,-1663.46 262.724,-1669.71 264.756,-1663.01"/>
</g>
<!-- \\Tag -->
<g id="node7" class="node"><title>\\Tag</title>
<a xlink:href="includes.controls.tag.html" xlink:title="Tag" target="_parent">
<polygon fill="none" stroke="black" points="429,-1672 375,-1672 375,-1636 429,-1636 429,-1672"/>
<text text-anchor="middle" x="402" y="-1651.2" font-family="Courier,monospace" font-size="11.00">Tag</text>
</a>
</g>
<!-- \\Tag&#45;&gt;\\Control -->
<g id="edge11" class="edge"><title>\\Tag&#45;&gt;\\Control</title>
<path fill="none" stroke="black" d="M374.735,-1654C345.639,-1654 298.341,-1654 264.281,-1654"/>
<polygon fill="none" stroke="black" points="264.171,-1650.5 254.171,-1654 264.171,-1657.5 264.171,-1650.5"/>
</g>
<!-- \\Database -->
<g id="node8" class="node"><title>\\Database</title>
<a xlink:href="includes.database.html" xlink:title="Database" target="_parent">
<polygon fill="none" stroke="black" points="257.5,-1483 186.5,-1483 186.5,-1447 257.5,-1447 257.5,-1483"/>
<text text-anchor="middle" x="222" y="-1462.2" font-family="Courier,monospace" font-size="11.00">Database</text>
</a>
</g>
<!-- \\Database&#45;&gt;\\Application -->
<g id="edge13" class="edge"><title>\\Database&#45;&gt;\\Application</title>
<path fill="none" stroke="black" d="M193.153,-1446.79C188.742,-1443.87 184.238,-1440.86 180,-1438 152.042,-1419.12 120.62,-1397.33 97.3844,-1381.12"/>
<polygon fill="none" stroke="black" points="99.1061,-1378.05 88.9044,-1375.19 95.0964,-1383.79 99.1061,-1378.05"/>
</g>
<!-- \\Sef -->
<g id="node9" class="node"><title>\\Sef</title>
<a xlink:href="includes.sef.html" xlink:title="Sef" target="_parent">
<polygon fill="none" stroke="black" points="249,-1429 195,-1429 195,-1393 249,-1393 249,-1429"/>
<text text-anchor="middle" x="222" y="-1408.2" font-family="Courier,monospace" font-size="11.00">Sef</text>
</a>
</g>
<!-- \\Sef&#45;&gt;\\Application -->
<g id="edge15" class="edge"><title>\\Sef&#45;&gt;\\Application</title>
<path fill="none" stroke="black" d="M194.91,-1402.08C173.833,-1394.88 143.457,-1384.5 117.166,-1375.51"/>
<polygon fill="none" stroke="black" points="118.284,-1372.2 107.689,-1372.27 116.02,-1378.82 118.284,-1372.2"/>
</g>
<!-- \\System -->
<g id="node10" class="node"><title>\\System</title>
<a xlink:href="includes.system.html" xlink:title="System" target="_parent">
<polygon fill="none" stroke="black" points="250.5,-1375 193.5,-1375 193.5,-1339 250.5,-1339 250.5,-1375"/>
<text text-anchor="middle" x="222" y="-1354.2" font-family="Courier,monospace" font-size="11.00">System</text>
</a>
</g>
<!-- \\System&#45;&gt;\\Application -->
<g id="edge17" class="edge"><title>\\System&#45;&gt;\\Application</title>
<path fill="none" stroke="black" d="M193.479,-1357C172.653,-1357 143.373,-1357 117.826,-1357"/>
<polygon fill="none" stroke="black" points="117.511,-1353.5 107.511,-1357 117.511,-1360.5 117.511,-1353.5"/>
</g>
<!-- \\Autoload -->
<g id="node11" class="node"><title>\\Autoload</title>
<a xlink:href="includes._autoload.html" xlink:title="Autoload" target="_parent">
<polygon fill="none" stroke="black" points="437.5,-1618 366.5,-1618 366.5,-1582 437.5,-1582 437.5,-1618"/>
<text text-anchor="middle" x="402" y="-1597.2" font-family="Courier,monospace" font-size="11.00">Autoload</text>
</a>
</g>
<!-- \\BlogController -->
<g id="node12" class="node"><title>\\BlogController</title>
<a xlink:href="modules.blog.controller.html" xlink:title="BlogController" target="_parent">
<polygon fill="none" stroke="black" points="457.5,-1564 346.5,-1564 346.5,-1528 457.5,-1528 457.5,-1564"/>
<text text-anchor="middle" x="402" y="-1543.2" font-family="Courier,monospace" font-size="11.00">BlogController</text>
</a>
</g>
<!-- \\Controller -->
<g id="node15" class="node"><title>\\Controller</title>
<a xlink:href="modules.controller.html" xlink:title="Controller" target="_parent">
<polygon fill="none" stroke="black" points="264,-1321 180,-1321 180,-1285 264,-1285 264,-1321"/>
<text text-anchor="middle" x="222" y="-1300.2" font-family="Courier,monospace" font-size="11.00">Controller</text>
</a>
</g>
<!-- \\BlogController&#45;&gt;\\Controller -->
<g id="edge19" class="edge"><title>\\BlogController&#45;&gt;\\Controller</title>
<path fill="none" stroke="black" d="M346.907,-1527.86C342.941,-1525.27 339.234,-1522.33 336,-1519 273.39,-1454.5 320.256,-1400.11 264,-1330 263.52,-1329.4 263.023,-1328.81 262.511,-1328.23"/>
<polygon fill="none" stroke="black" points="264.792,-1325.57 255.146,-1321.19 259.955,-1330.63 264.792,-1325.57"/>
</g>
<!-- \\BlogModel -->
<g id="node13" class="node"><title>\\BlogModel</title>
<a xlink:href="modules.blog.model.html" xlink:title="BlogModel" target="_parent">
<polygon fill="none" stroke="black" points="440.5,-1078 363.5,-1078 363.5,-1042 440.5,-1042 440.5,-1078"/>
<text text-anchor="middle" x="402" y="-1057.2" font-family="Courier,monospace" font-size="11.00">BlogModel</text>
</a>
</g>
<!-- \\Model -->
<g id="node27" class="node"><title>\\Model</title>
<a xlink:href="modules.model.html" xlink:title="Model" target="_parent">
<polygon fill="none" stroke="black" points="249,-889 195,-889 195,-853 249,-853 249,-889"/>
<text text-anchor="middle" x="222" y="-868.2" font-family="Courier,monospace" font-size="11.00">Model</text>
</a>
</g>
<!-- \\BlogModel&#45;&gt;\\Model -->
<g id="edge21" class="edge"><title>\\BlogModel&#45;&gt;\\Model</title>
<path fill="none" stroke="black" d="M363.231,-1048.53C353.743,-1044.56 343.996,-1039.44 336,-1033 289.363,-995.462 253.781,-933.779 235.866,-898.343"/>
<polygon fill="none" stroke="black" points="238.858,-896.497 231.287,-889.086 232.584,-899.601 238.858,-896.497"/>
</g>
<!-- \\BlogView -->
<g id="node14" class="node"><title>\\BlogView</title>
<a xlink:href="modules.blog.view.html" xlink:title="BlogView" target="_parent">
<polygon fill="none" stroke="black" points="437.5,-484 366.5,-484 366.5,-448 437.5,-448 437.5,-484"/>
<text text-anchor="middle" x="402" y="-463.2" font-family="Courier,monospace" font-size="11.00">BlogView</text>
</a>
</g>
<!-- \\View -->
<g id="node44" class="node"><title>\\View</title>
<a xlink:href="modules.view.html" xlink:title="View" target="_parent">
<polygon fill="none" stroke="black" points="249,-295 195,-295 195,-259 249,-259 249,-295"/>
<text text-anchor="middle" x="222" y="-274.2" font-family="Courier,monospace" font-size="11.00">View</text>
</a>
</g>
<!-- \\BlogView&#45;&gt;\\View -->
<g id="edge23" class="edge"><title>\\BlogView&#45;&gt;\\View</title>
<path fill="none" stroke="black" d="M366.269,-455.767C355.852,-451.637 344.853,-446.126 336,-439 289.363,-401.462 253.781,-339.779 235.866,-304.343"/>
<polygon fill="none" stroke="black" points="238.858,-302.497 231.287,-295.086 232.584,-305.601 238.858,-302.497"/>
</g>
<!-- \\Controller&#45;&gt;\\Application -->
<g id="edge25" class="edge"><title>\\Controller&#45;&gt;\\Application</title>
<path fill="none" stroke="black" d="M179.9,-1317.05C160.798,-1323.58 137.821,-1331.43 117.313,-1338.44"/>
<polygon fill="none" stroke="black" points="116.11,-1335.15 107.78,-1341.7 118.374,-1341.77 116.11,-1335.15"/>
</g>
<!-- \\Entity -->
<g id="node16" class="node"><title>\\Entity</title>
<a xlink:href="modules.entity.html" xlink:title="Entity" target="_parent">
<polygon fill="none" stroke="black" points="250.5,-592 193.5,-592 193.5,-556 250.5,-556 250.5,-592"/>
<text text-anchor="middle" x="222" y="-571.2" font-family="Courier,monospace" font-size="11.00">Entity</text>
</a>
</g>
<!-- \\Entity&#45;&gt;\\Application -->
<g id="edge27" class="edge"><title>\\Entity&#45;&gt;\\Application</title>
<path fill="none" stroke="black" d="M217.327,-592.202C196.572,-695.058 94.0065,-1203.34 68.6677,-1328.91"/>
<polygon fill="none" stroke="black" points="65.2001,-1328.4 66.6529,-1338.9 72.0618,-1329.79 65.2001,-1328.4"/>
</g>
<!-- \\FileController -->
<g id="node17" class="node"><title>\\FileController</title>
<a xlink:href="modules.file.controller.html" xlink:title="FileController" target="_parent">
<polygon fill="none" stroke="black" points="457.5,-1510 346.5,-1510 346.5,-1474 457.5,-1474 457.5,-1510"/>
<text text-anchor="middle" x="402" y="-1489.2" font-family="Courier,monospace" font-size="11.00">FileController</text>
</a>
</g>
<!-- \\FileController&#45;&gt;\\Controller -->
<g id="edge29" class="edge"><title>\\FileController&#45;&gt;\\Controller</title>
<path fill="none" stroke="black" d="M348.316,-1473.98C343.897,-1471.35 339.709,-1468.37 336,-1465 285.659,-1419.29 309.811,-1380.25 264,-1330 263.372,-1329.31 262.723,-1328.63 262.055,-1327.96"/>
<polygon fill="none" stroke="black" points="264.167,-1325.16 254.342,-1321.19 259.551,-1330.42 264.167,-1325.16"/>
</g>
<!-- \\FileEntity -->
<g id="node18" class="node"><title>\\FileEntity</title>
<a xlink:href="modules.file.entity.html" xlink:title="FileEntity" target="_parent">
<polygon fill="none" stroke="black" points="444,-592 360,-592 360,-556 444,-556 444,-592"/>
<text text-anchor="middle" x="402" y="-571.2" font-family="Courier,monospace" font-size="11.00">FileEntity</text>
</a>
</g>
<!-- \\FileEntity&#45;&gt;\\Entity -->
<g id="edge31" class="edge"><title>\\FileEntity&#45;&gt;\\Entity</title>
<path fill="none" stroke="black" d="M359.716,-574C329.897,-574 289.933,-574 260.919,-574"/>
<polygon fill="none" stroke="black" points="260.764,-570.5 250.764,-574 260.764,-577.5 260.764,-570.5"/>
</g>
<!-- \\FileModel -->
<g id="node19" class="node"><title>\\FileModel</title>
<a xlink:href="modules.file.model.html" xlink:title="FileModel" target="_parent">
<polygon fill="none" stroke="black" points="440.5,-1024 363.5,-1024 363.5,-988 440.5,-988 440.5,-1024"/>
<text text-anchor="middle" x="402" y="-1003.2" font-family="Courier,monospace" font-size="11.00">FileModel</text>
</a>
</g>
<!-- \\FileModel&#45;&gt;\\Model -->
<g id="edge33" class="edge"><title>\\FileModel&#45;&gt;\\Model</title>
<path fill="none" stroke="black" d="M363.364,-993.126C354.076,-989.215 344.391,-984.476 336,-979 300.474,-955.814 266.198,-920.672 244.894,-896.822"/>
<polygon fill="none" stroke="black" points="247.418,-894.393 238.183,-889.2 242.165,-899.019 247.418,-894.393"/>
</g>
<!-- \\FileView -->
<g id="node20" class="node"><title>\\FileView</title>
<a xlink:href="modules.file.view.html" xlink:title="FileView" target="_parent">
<polygon fill="none" stroke="black" points="437.5,-430 366.5,-430 366.5,-394 437.5,-394 437.5,-430"/>
<text text-anchor="middle" x="402" y="-409.2" font-family="Courier,monospace" font-size="11.00">FileView</text>
</a>
</g>
<!-- \\FileView&#45;&gt;\\View -->
<g id="edge35" class="edge"><title>\\FileView&#45;&gt;\\View</title>
<path fill="none" stroke="black" d="M366.406,-400.384C356.217,-396.246 345.312,-391.078 336,-385 300.474,-361.814 266.198,-326.672 244.894,-302.822"/>
<polygon fill="none" stroke="black" points="247.418,-300.393 238.183,-295.2 242.165,-305.019 247.418,-300.393"/>
</g>
<!-- \\FrontController -->
<g id="node21" class="node"><title>\\FrontController</title>
<a xlink:href="modules.front.controller.html" xlink:title="FrontController" target="_parent">
<polygon fill="none" stroke="black" points="461,-1456 343,-1456 343,-1420 461,-1420 461,-1456"/>
<text text-anchor="middle" x="402" y="-1435.2" font-family="Courier,monospace" font-size="11.00">FrontController</text>
</a>
</g>
<!-- \\FrontController&#45;&gt;\\Controller -->
<g id="edge37" class="edge"><title>\\FrontController&#45;&gt;\\Controller</title>
<path fill="none" stroke="black" d="M350.784,-1419.89C345.61,-1417.22 340.578,-1414.26 336,-1411 296.768,-1383.06 300.425,-1361.52 264,-1330 263.021,-1329.15 262.014,-1328.31 260.986,-1327.48"/>
<polygon fill="none" stroke="black" points="262.881,-1324.52 252.796,-1321.28 258.656,-1330.1 262.881,-1324.52"/>
</g>
<!-- \\FrontModel -->
<g id="node22" class="node"><title>\\FrontModel</title>
<a xlink:href="modules.front.model.html" xlink:title="FrontModel" target="_parent">
<polygon fill="none" stroke="black" points="444,-970 360,-970 360,-934 444,-934 444,-970"/>
<text text-anchor="middle" x="402" y="-949.2" font-family="Courier,monospace" font-size="11.00">FrontModel</text>
</a>
</g>
<!-- \\FrontModel&#45;&gt;\\Model -->
<g id="edge39" class="edge"><title>\\FrontModel&#45;&gt;\\Model</title>
<path fill="none" stroke="black" d="M359.946,-935.327C351.971,-931.981 343.7,-928.436 336,-925 309.766,-913.293 280.511,-899.286 258.342,-888.472"/>
<polygon fill="none" stroke="black" points="259.825,-885.301 249.304,-884.048 256.747,-891.588 259.825,-885.301"/>
</g>
<!-- \\FrontView -->
<g id="node23" class="node"><title>\\FrontView</title>
<a xlink:href="modules.front.view.html" xlink:title="FrontView" target="_parent">
<polygon fill="none" stroke="black" points="440.5,-376 363.5,-376 363.5,-340 440.5,-340 440.5,-376"/>
<text text-anchor="middle" x="402" y="-355.2" font-family="Courier,monospace" font-size="11.00">FrontView</text>
</a>
</g>
<!-- \\FrontView&#45;&gt;\\View -->
<g id="edge41" class="edge"><title>\\FrontView&#45;&gt;\\View</title>
<path fill="none" stroke="black" d="M363.392,-342.769C354.38,-339.011 344.815,-334.934 336,-331 309.766,-319.293 280.511,-305.286 258.342,-294.472"/>
<polygon fill="none" stroke="black" points="259.825,-291.301 249.304,-290.048 256.747,-297.588 259.825,-291.301"/>
</g>
<!-- \\GalleryController -->
<g id="node24" class="node"><title>\\GalleryController</title>
<a xlink:href="modules.gallery.controller.html" xlink:title="GalleryController" target="_parent">
<polygon fill="none" stroke="black" points="467.5,-1402 336.5,-1402 336.5,-1366 467.5,-1366 467.5,-1402"/>
<text text-anchor="middle" x="402" y="-1381.2" font-family="Courier,monospace" font-size="11.00">GalleryController</text>
</a>
</g>
<!-- \\GalleryController&#45;&gt;\\Controller -->
<g id="edge43" class="edge"><title>\\GalleryController&#45;&gt;\\Controller</title>
<path fill="none" stroke="black" d="M356.462,-1365.86C349.585,-1362.96 342.584,-1359.94 336,-1357 313.702,-1347.05 289.222,-1335.44 268.765,-1325.54"/>
<polygon fill="none" stroke="black" points="270.196,-1322.34 259.672,-1321.12 267.138,-1328.64 270.196,-1322.34"/>
</g>
<!-- \\GalleryModel -->
<g id="node25" class="node"><title>\\GalleryModel</title>
<a xlink:href="modules.gallery.model.html" xlink:title="GalleryModel" target="_parent">
<polygon fill="none" stroke="black" points="451,-916 353,-916 353,-880 451,-880 451,-916"/>
<text text-anchor="middle" x="402" y="-895.2" font-family="Courier,monospace" font-size="11.00">GalleryModel</text>
</a>
</g>
<!-- \\GalleryModel&#45;&gt;\\Model -->
<g id="edge45" class="edge"><title>\\GalleryModel&#45;&gt;\\Model</title>
<path fill="none" stroke="black" d="M352.831,-890.693C323.381,-886.226 286.316,-880.604 259.336,-876.512"/>
<polygon fill="none" stroke="black" points="259.578,-873.008 249.166,-874.969 258.528,-879.929 259.578,-873.008"/>
</g>
<!-- \\GalleryView -->
<g id="node26" class="node"><title>\\GalleryView</title>
<a xlink:href="modules.gallery.view.html" xlink:title="GalleryView" target="_parent">
<polygon fill="none" stroke="black" points="447.5,-322 356.5,-322 356.5,-286 447.5,-286 447.5,-322"/>
<text text-anchor="middle" x="402" y="-301.2" font-family="Courier,monospace" font-size="11.00">GalleryView</text>
</a>
</g>
<!-- \\GalleryView&#45;&gt;\\View -->
<g id="edge47" class="edge"><title>\\GalleryView&#45;&gt;\\View</title>
<path fill="none" stroke="black" d="M356.083,-297.187C326.129,-292.643 287.262,-286.748 259.274,-282.502"/>
<polygon fill="none" stroke="black" points="259.533,-279.002 249.121,-280.962 258.483,-285.922 259.533,-279.002"/>
</g>
<!-- \\Model&#45;&gt;\\Application -->
<g id="edge49" class="edge"><title>\\Model&#45;&gt;\\Application</title>
<path fill="none" stroke="black" d="M215.095,-889.165C191.141,-962.845 101.125,-1239.73 72.0893,-1329.04"/>
<polygon fill="none" stroke="black" points="68.6984,-1328.15 68.9351,-1338.74 75.3554,-1330.32 68.6984,-1328.15"/>
</g>
<!-- \\SearchController -->
<g id="node28" class="node"><title>\\SearchController</title>
<a xlink:href="modules.search.controller.html" xlink:title="SearchController" target="_parent">
<polygon fill="none" stroke="black" points="464.5,-1348 339.5,-1348 339.5,-1312 464.5,-1312 464.5,-1348"/>
<text text-anchor="middle" x="402" y="-1327.2" font-family="Courier,monospace" font-size="11.00">SearchController</text>
</a>
</g>
<!-- \\SearchController&#45;&gt;\\Controller -->
<g id="edge51" class="edge"><title>\\SearchController&#45;&gt;\\Controller</title>
<path fill="none" stroke="black" d="M339.244,-1320.63C318.027,-1317.41 294.524,-1313.85 274.235,-1310.77"/>
<polygon fill="none" stroke="black" points="274.665,-1307.3 264.254,-1309.26 273.616,-1314.22 274.665,-1307.3"/>
</g>
<!-- \\SearchModel -->
<g id="node29" class="node"><title>\\SearchModel</title>
<a xlink:href="modules.search.model.html" xlink:title="SearchModel" target="_parent">
<polygon fill="none" stroke="black" points="447.5,-862 356.5,-862 356.5,-826 447.5,-826 447.5,-862"/>
<text text-anchor="middle" x="402" y="-841.2" font-family="Courier,monospace" font-size="11.00">SearchModel</text>
</a>
</g>
<!-- \\SearchModel&#45;&gt;\\Model -->
<g id="edge53" class="edge"><title>\\SearchModel&#45;&gt;\\Model</title>
<path fill="none" stroke="black" d="M356.083,-850.813C326.129,-855.357 287.262,-861.252 259.274,-865.498"/>
<polygon fill="none" stroke="black" points="258.483,-862.078 249.121,-867.038 259.533,-868.998 258.483,-862.078"/>
</g>
<!-- \\SearchView -->
<g id="node30" class="node"><title>\\SearchView</title>
<a xlink:href="modules.search.view.html" xlink:title="SearchView" target="_parent">
<polygon fill="none" stroke="black" points="444,-268 360,-268 360,-232 444,-232 444,-268"/>
<text text-anchor="middle" x="402" y="-247.2" font-family="Courier,monospace" font-size="11.00">SearchView</text>
</a>
</g>
<!-- \\SearchView&#45;&gt;\\View -->
<g id="edge55" class="edge"><title>\\SearchView&#45;&gt;\\View</title>
<path fill="none" stroke="black" d="M359.716,-256.262C329.348,-260.869 288.458,-267.071 259.328,-271.49"/>
<polygon fill="none" stroke="black" points="258.531,-268.07 249.169,-273.031 259.581,-274.991 258.531,-268.07"/>
</g>
<!-- \\SitemapController -->
<g id="node31" class="node"><title>\\SitemapController</title>
<a xlink:href="modules.sitemap.controller.html" xlink:title="SitemapController" target="_parent">
<polygon fill="none" stroke="black" points="467.5,-1294 336.5,-1294 336.5,-1258 467.5,-1258 467.5,-1294"/>
<text text-anchor="middle" x="402" y="-1273.2" font-family="Courier,monospace" font-size="11.00">SitemapController</text>
</a>
</g>
<!-- \\SitemapController&#45;&gt;\\Controller -->
<g id="edge57" class="edge"><title>\\SitemapController&#45;&gt;\\Controller</title>
<path fill="none" stroke="black" d="M336.486,-1285.79C315.898,-1288.91 293.414,-1292.32 273.93,-1295.27"/>
<polygon fill="none" stroke="black" points="273.403,-1291.81 264.041,-1296.77 274.452,-1298.74 273.403,-1291.81"/>
</g>
<!-- \\SitemapModel -->
<g id="node32" class="node"><title>\\SitemapModel</title>
<a xlink:href="modules.sitemap.model.html" xlink:title="SitemapModel" target="_parent">
<polygon fill="none" stroke="black" points="451,-808 353,-808 353,-772 451,-772 451,-808"/>
<text text-anchor="middle" x="402" y="-787.2" font-family="Courier,monospace" font-size="11.00">SitemapModel</text>
</a>
</g>
<!-- \\SitemapModel&#45;&gt;\\Model -->
<g id="edge59" class="edge"><title>\\SitemapModel&#45;&gt;\\Model</title>
<path fill="none" stroke="black" d="M356.462,-808.139C349.585,-811.044 342.584,-814.062 336,-817 309.766,-828.707 280.511,-842.714 258.342,-853.528"/>
<polygon fill="none" stroke="black" points="256.747,-850.412 249.304,-857.952 259.825,-856.699 256.747,-850.412"/>
</g>
<!-- \\SitemapView -->
<g id="node33" class="node"><title>\\SitemapView</title>
<a xlink:href="modules.sitemap.view.html" xlink:title="SitemapView" target="_parent">
<polygon fill="none" stroke="black" points="447.5,-214 356.5,-214 356.5,-178 447.5,-178 447.5,-214"/>
<text text-anchor="middle" x="402" y="-193.2" font-family="Courier,monospace" font-size="11.00">SitemapView</text>
</a>
</g>
<!-- \\SitemapView&#45;&gt;\\View -->
<g id="edge61" class="edge"><title>\\SitemapView&#45;&gt;\\View</title>
<path fill="none" stroke="black" d="M356.462,-214.139C349.585,-217.044 342.584,-220.062 336,-223 309.766,-234.707 280.511,-248.714 258.342,-259.528"/>
<polygon fill="none" stroke="black" points="256.747,-256.412 249.304,-263.952 259.825,-262.699 256.747,-256.412"/>
</g>
<!-- \\StatsController -->
<g id="node34" class="node"><title>\\StatsController</title>
<a xlink:href="modules.stats.controller.html" xlink:title="StatsController" target="_parent">
<polygon fill="none" stroke="black" points="461,-1240 343,-1240 343,-1204 461,-1204 461,-1240"/>
<text text-anchor="middle" x="402" y="-1219.2" font-family="Courier,monospace" font-size="11.00">StatsController</text>
</a>
</g>
<!-- \\StatsController&#45;&gt;\\Controller -->
<g id="edge63" class="edge"><title>\\StatsController&#45;&gt;\\Controller</title>
<path fill="none" stroke="black" d="M356.462,-1240.14C349.585,-1243.04 342.584,-1246.06 336,-1249 313.702,-1258.95 289.222,-1270.56 268.765,-1280.46"/>
<polygon fill="none" stroke="black" points="267.138,-1277.36 259.672,-1284.88 270.196,-1283.66 267.138,-1277.36"/>
</g>
<!-- \\StatsModel -->
<g id="node35" class="node"><title>\\StatsModel</title>
<a xlink:href="modules.stats.model.html" xlink:title="StatsModel" target="_parent">
<polygon fill="none" stroke="black" points="444,-754 360,-754 360,-718 444,-718 444,-754"/>
<text text-anchor="middle" x="402" y="-733.2" font-family="Courier,monospace" font-size="11.00">StatsModel</text>
</a>
</g>
<!-- \\StatsModel&#45;&gt;\\Model -->
<g id="edge65" class="edge"><title>\\StatsModel&#45;&gt;\\Model</title>
<path fill="none" stroke="black" d="M359.951,-750.342C351.733,-753.952 343.368,-758.191 336,-763 300.474,-786.186 266.198,-821.328 244.894,-845.178"/>
<polygon fill="none" stroke="black" points="242.165,-842.981 238.183,-852.8 247.418,-847.607 242.165,-842.981"/>
</g>
<!-- \\StatsView -->
<g id="node36" class="node"><title>\\StatsView</title>
<a xlink:href="modules.stats.view.html" xlink:title="StatsView" target="_parent">
<polygon fill="none" stroke="black" points="440.5,-160 363.5,-160 363.5,-124 440.5,-124 440.5,-160"/>
<text text-anchor="middle" x="402" y="-139.2" font-family="Courier,monospace" font-size="11.00">StatsView</text>
</a>
</g>
<!-- \\StatsView&#45;&gt;\\View -->
<g id="edge67" class="edge"><title>\\StatsView&#45;&gt;\\View</title>
<path fill="none" stroke="black" d="M363.364,-154.874C354.076,-158.785 344.391,-163.524 336,-169 300.474,-192.186 266.198,-227.328 244.894,-251.178"/>
<polygon fill="none" stroke="black" points="242.165,-248.981 238.183,-258.8 247.418,-253.607 242.165,-248.981"/>
</g>
<!-- \\TagController -->
<g id="node37" class="node"><title>\\TagController</title>
<a xlink:href="modules.tag.controller.html" xlink:title="TagController" target="_parent">
<polygon fill="none" stroke="black" points="454,-1186 350,-1186 350,-1150 454,-1150 454,-1186"/>
<text text-anchor="middle" x="402" y="-1165.2" font-family="Courier,monospace" font-size="11.00">TagController</text>
</a>
</g>
<!-- \\TagController&#45;&gt;\\Controller -->
<g id="edge69" class="edge"><title>\\TagController&#45;&gt;\\Controller</title>
<path fill="none" stroke="black" d="M351.726,-1186.16C346.267,-1188.84 340.912,-1191.79 336,-1195 300.474,-1218.19 266.198,-1253.33 244.894,-1277.18"/>
<polygon fill="none" stroke="black" points="242.165,-1274.98 238.183,-1284.8 247.418,-1279.61 242.165,-1274.98"/>
</g>
<!-- \\TagModel -->
<g id="node38" class="node"><title>\\TagModel</title>
<a xlink:href="modules.tag.model.html" xlink:title="TagModel" target="_parent">
<polygon fill="none" stroke="black" points="437.5,-700 366.5,-700 366.5,-664 437.5,-664 437.5,-700"/>
<text text-anchor="middle" x="402" y="-679.2" font-family="Courier,monospace" font-size="11.00">TagModel</text>
</a>
</g>
<!-- \\TagModel&#45;&gt;\\Model -->
<g id="edge71" class="edge"><title>\\TagModel&#45;&gt;\\Model</title>
<path fill="none" stroke="black" d="M366.269,-692.233C355.852,-696.363 344.853,-701.874 336,-709 289.363,-746.538 253.781,-808.221 235.866,-843.657"/>
<polygon fill="none" stroke="black" points="232.584,-842.399 231.287,-852.914 238.858,-845.503 232.584,-842.399"/>
</g>
<!-- \\TagView -->
<g id="node39" class="node"><title>\\TagView</title>
<a xlink:href="modules.tag.view.html" xlink:title="TagView" target="_parent">
<polygon fill="none" stroke="black" points="434,-106 370,-106 370,-70 434,-70 434,-106"/>
<text text-anchor="middle" x="402" y="-85.2" font-family="Courier,monospace" font-size="11.00">TagView</text>
</a>
</g>
<!-- \\TagView&#45;&gt;\\View -->
<g id="edge73" class="edge"><title>\\TagView&#45;&gt;\\View</title>
<path fill="none" stroke="black" d="M369.937,-96.825C358.484,-101.082 345.9,-107.032 336,-115 289.363,-152.538 253.781,-214.221 235.866,-249.657"/>
<polygon fill="none" stroke="black" points="232.584,-248.399 231.287,-258.914 238.858,-251.503 232.584,-248.399"/>
</g>
<!-- \\UserController -->
<g id="node40" class="node"><title>\\UserController</title>
<a xlink:href="modules.user.controller.html" xlink:title="UserController" target="_parent">
<polygon fill="none" stroke="black" points="457.5,-1132 346.5,-1132 346.5,-1096 457.5,-1096 457.5,-1132"/>
<text text-anchor="middle" x="402" y="-1111.2" font-family="Courier,monospace" font-size="11.00">UserController</text>
</a>
</g>
<!-- \\UserController&#45;&gt;\\Controller -->
<g id="edge75" class="edge"><title>\\UserController&#45;&gt;\\Controller</title>
<path fill="none" stroke="black" d="M349.386,-1132.13C344.645,-1134.76 340.093,-1137.71 336,-1141 289.363,-1178.54 253.781,-1240.22 235.866,-1275.66"/>
<polygon fill="none" stroke="black" points="232.584,-1274.4 231.287,-1284.91 238.858,-1277.5 232.584,-1274.4"/>
</g>
<!-- \\UserEntity -->
<g id="node41" class="node"><title>\\UserEntity</title>
<a xlink:href="modules.user.entity.html" xlink:title="UserEntity" target="_parent">
<polygon fill="none" stroke="black" points="444,-538 360,-538 360,-502 444,-502 444,-538"/>
<text text-anchor="middle" x="402" y="-517.2" font-family="Courier,monospace" font-size="11.00">UserEntity</text>
</a>
</g>
<!-- \\UserEntity&#45;&gt;\\Entity -->
<g id="edge77" class="edge"><title>\\UserEntity&#45;&gt;\\Entity</title>
<path fill="none" stroke="black" d="M359.716,-532.524C329.766,-541.61 289.582,-553.801 260.537,-562.612"/>
<polygon fill="none" stroke="black" points="259.317,-559.325 250.764,-565.577 261.349,-566.023 259.317,-559.325"/>
</g>
<!-- \\UserModel -->
<g id="node42" class="node"><title>\\UserModel</title>
<a xlink:href="modules.user.model.html" xlink:title="UserModel" target="_parent">
<polygon fill="none" stroke="black" points="440.5,-646 363.5,-646 363.5,-610 440.5,-610 440.5,-646"/>
<text text-anchor="middle" x="402" y="-625.2" font-family="Courier,monospace" font-size="11.00">UserModel</text>
</a>
</g>
<!-- \\UserModel&#45;&gt;\\Model -->
<g id="edge79" class="edge"><title>\\UserModel&#45;&gt;\\Model</title>
<path fill="none" stroke="black" d="M363.333,-638.519C353.631,-642.529 343.752,-647.904 336,-655 278.077,-708.022 244.757,-797.654 230.804,-842.973"/>
<polygon fill="none" stroke="black" points="227.401,-842.135 227.893,-852.719 234.109,-844.138 227.401,-842.135"/>
</g>
<!-- \\UserView -->
<g id="node43" class="node"><title>\\UserView</title>
<a xlink:href="modules.user.view.html" xlink:title="UserView" target="_parent">
<polygon fill="none" stroke="black" points="437.5,-52 366.5,-52 366.5,-16 437.5,-16 437.5,-52"/>
<text text-anchor="middle" x="402" y="-31.2" font-family="Courier,monospace" font-size="11.00">UserView</text>
</a>
</g>
<!-- \\UserView&#45;&gt;\\View -->
<g id="edge81" class="edge"><title>\\UserView&#45;&gt;\\View</title>
<path fill="none" stroke="black" d="M366.37,-43.3044C355.722,-47.4228 344.563,-53.1618 336,-61 278.077,-114.022 244.757,-203.654 230.804,-248.973"/>
<polygon fill="none" stroke="black" points="227.401,-248.135 227.893,-258.719 234.109,-250.138 227.401,-248.135"/>
</g>
<!-- \\View&#45;&gt;\\Application -->
<g id="edge83" class="edge"><title>\\View&#45;&gt;\\Application</title>
<path fill="none" stroke="black" d="M218.22,-295.004C211.535,-338.364 194.07,-452.027 180,-547 134.651,-853.108 81.7814,-1224.63 67.0102,-1328.71"/>
<polygon fill="none" stroke="black" points="63.5266,-1328.35 65.5871,-1338.74 70.4572,-1329.33 63.5266,-1328.35"/>
</g>
</g>
</svg>
