<?xml version="1.0" encoding="UTF-8" standalone="no"?>
<!DOCTYPE svg PUBLIC "-//W3C//DTD SVG 1.1//EN"
 "http://www.w3.org/Graphics/SVG/1.1/DTD/svg11.dtd">
<!-- Generated by graphviz version 2.28.0 (20110507.0327)
 -->
<!-- Title: G Pages: 1 -->
<svg width="492pt" height="1338pt"
 viewBox="0.00 0.00 492.00 1338.00" xmlns="http://www.w3.org/2000/svg" xmlns:xlink="http://www.w3.org/1999/xlink">
<g id="graph1" class="graph" transform="scale(1 1) rotate(0) translate(4 1334)">
<title>G</title>
<polygon fill="white" stroke="white" points="-4,5 -4,-1334 489,-1334 489,5 -4,5"/>
<g id="graph2" class="cluster"><title>cluster_global</title>
<polyline fill="none" stroke="gray" points="20,-8 464,-8 "/>
<path fill="none" stroke="gray" d="M464,-8C470,-8 476,-14 476,-20"/>
<polyline fill="none" stroke="gray" points="476,-20 476,-1310 "/>
<path fill="none" stroke="gray" d="M476,-1310C476,-1316 470,-1322 464,-1322"/>
<polyline fill="none" stroke="gray" points="464,-1322 20,-1322 "/>
<path fill="none" stroke="gray" d="M20,-1322C14,-1322 8,-1316 8,-1310"/>
<polyline fill="none" stroke="gray" points="8,-1310 8,-20 "/>
<path fill="none" stroke="gray" d="M8,-20C8,-14 14,-8 20,-8"/>
<text text-anchor="middle" x="242" y="-1309.2" font-family="Times New Roman,serif" font-size="11.00" fill="gray">global</text>
</g>
<!-- \\Application -->
<g id="node2" class="node"><title>\\Application</title>
<a xlink:href="includes.application.html" xlink:title="Application" target="_parent">
<polygon fill="none" stroke="black" points="107.5,-970 16.5,-970 16.5,-934 107.5,-934 107.5,-970"/>
<text text-anchor="middle" x="62" y="-949.2" font-family="Courier,monospace" font-size="11.00">Application</text>
</a>
</g>
<!-- \\Cache -->
<g id="node3" class="node"><title>\\Cache</title>
<a xlink:href="includes.cache.html" xlink:title="Cache" target="_parent">
<polygon fill="none" stroke="black" points="249,-1240 195,-1240 195,-1204 249,-1204 249,-1240"/>
<text text-anchor="middle" x="222" y="-1219.2" font-family="Courier,monospace" font-size="11.00">Cache</text>
</a>
</g>
<!-- \\Cache&#45;&gt;\\Application -->
<g id="edge3" class="edge"><title>\\Cache&#45;&gt;\\Application</title>
<path fill="none" stroke="black" d="M194.593,-1207.66C189.329,-1204.01 184.152,-1199.75 180,-1195 121.848,-1128.51 85.8643,-1028.05 70.957,-979.796"/>
<polygon fill="none" stroke="black" points="74.2562,-978.613 68.0156,-970.051 67.5549,-980.636 74.2562,-978.613"/>
</g>
<!-- \\Control -->
<g id="node4" class="node"><title>\\Control</title>
<a xlink:href="includes.controls.control.html" xlink:title="Control" target="_parent">
<polygon fill="none" stroke="black" points="254,-1186 190,-1186 190,-1150 254,-1150 254,-1186"/>
<text text-anchor="middle" x="222" y="-1165.2" font-family="Courier,monospace" font-size="11.00">Control</text>
</a>
</g>
<!-- \\Control&#45;&gt;\\Application -->
<g id="edge5" class="edge"><title>\\Control&#45;&gt;\\Application</title>
<path fill="none" stroke="black" d="M207.801,-1149.96C179.918,-1111.84 114.915,-1022.97 82.3358,-978.434"/>
<polygon fill="none" stroke="black" points="85.0016,-976.15 76.2728,-970.145 79.3518,-980.283 85.0016,-976.15"/>
</g>
<!-- \\File -->
<g id="node5" class="node"><title>\\File</title>
<a xlink:href="includes.controls.file.html" xlink:title="File" target="_parent">
<polygon fill="none" stroke="black" points="429,-1294 375,-1294 375,-1258 429,-1258 429,-1294"/>
<text text-anchor="middle" x="402" y="-1273.2" font-family="Courier,monospace" font-size="11.00">File</text>
</a>
</g>
<!-- \\File&#45;&gt;\\Control -->
<g id="edge7" class="edge"><title>\\File&#45;&gt;\\Control</title>
<path fill="none" stroke="black" d="M374.989,-1266.91C362.811,-1262.23 348.311,-1256.03 336,-1249 301.259,-1229.17 296.719,-1218.01 264,-1195 262.562,-1193.99 261.09,-1192.97 259.598,-1191.94"/>
<polygon fill="none" stroke="black" points="261.185,-1188.79 250.943,-1186.07 257.258,-1194.58 261.185,-1188.79"/>
</g>
<!-- \\Relations -->
<g id="node6" class="node"><title>\\Relations</title>
<a xlink:href="includes.controls.relations.html" xlink:title="Relations" target="_parent">
<polygon fill="none" stroke="black" points="440.5,-1240 363.5,-1240 363.5,-1204 440.5,-1204 440.5,-1240"/>
<text text-anchor="middle" x="402" y="-1219.2" font-family="Courier,monospace" font-size="11.00">Relations</text>
</a>
</g>
<!-- \\Relations&#45;&gt;\\Control -->
<g id="edge9" class="edge"><title>\\Relations&#45;&gt;\\Control</title>
<path fill="none" stroke="black" d="M363.251,-1210.55C334.094,-1201.7 293.806,-1189.48 263.888,-1180.4"/>
<polygon fill="none" stroke="black" points="264.756,-1177.01 254.171,-1177.46 262.724,-1183.71 264.756,-1177.01"/>
</g>
<!-- \\Tag -->
<g id="node7" class="node"><title>\\Tag</title>
<a xlink:href="includes.controls.tag.html" xlink:title="Tag" target="_parent">
<polygon fill="none" stroke="black" points="429,-1186 375,-1186 375,-1150 429,-1150 429,-1186"/>
<text text-anchor="middle" x="402" y="-1165.2" font-family="Courier,monospace" font-size="11.00">Tag</text>
</a>
</g>
<!-- \\Tag&#45;&gt;\\Control -->
<g id="edge11" class="edge"><title>\\Tag&#45;&gt;\\Control</title>
<path fill="none" stroke="black" d="M374.735,-1168C345.639,-1168 298.341,-1168 264.281,-1168"/>
<polygon fill="none" stroke="black" points="264.171,-1164.5 254.171,-1168 264.171,-1171.5 264.171,-1164.5"/>
</g>
<!-- \\Database -->
<g id="node8" class="node"><title>\\Database</title>
<a xlink:href="includes.database.html" xlink:title="Database" target="_parent">
<polygon fill="none" stroke="black" points="257.5,-1078 186.5,-1078 186.5,-1042 257.5,-1042 257.5,-1078"/>
<text text-anchor="middle" x="222" y="-1057.2" font-family="Courier,monospace" font-size="11.00">Database</text>
</a>
</g>
<!-- \\Database&#45;&gt;\\Application -->
<g id="edge13" class="edge"><title>\\Database&#45;&gt;\\Application</title>
<path fill="none" stroke="black" d="M193.153,-1041.79C188.742,-1038.87 184.238,-1035.86 180,-1033 152.042,-1014.12 120.62,-992.335 97.3844,-976.115"/>
<polygon fill="none" stroke="black" points="99.1061,-973.049 88.9044,-970.189 95.0964,-978.786 99.1061,-973.049"/>
</g>
<!-- \\Sef -->
<g id="node9" class="node"><title>\\Sef</title>
<a xlink:href="includes.sef.html" xlink:title="Sef" target="_parent">
<polygon fill="none" stroke="black" points="249,-1024 195,-1024 195,-988 249,-988 249,-1024"/>
<text text-anchor="middle" x="222" y="-1003.2" font-family="Courier,monospace" font-size="11.00">Sef</text>
</a>
</g>
<!-- \\Sef&#45;&gt;\\Application -->
<g id="edge15" class="edge"><title>\\Sef&#45;&gt;\\Application</title>
<path fill="none" stroke="black" d="M194.91,-997.083C173.833,-989.879 143.457,-979.498 117.166,-970.512"/>
<polygon fill="none" stroke="black" points="118.284,-967.196 107.689,-967.273 116.02,-973.82 118.284,-967.196"/>
</g>
<!-- \\System -->
<g id="node10" class="node"><title>\\System</title>
<a xlink:href="includes.system.html" xlink:title="System" target="_parent">
<polygon fill="none" stroke="black" points="250.5,-970 193.5,-970 193.5,-934 250.5,-934 250.5,-970"/>
<text text-anchor="middle" x="222" y="-949.2" font-family="Courier,monospace" font-size="11.00">System</text>
</a>
</g>
<!-- \\System&#45;&gt;\\Application -->
<g id="edge17" class="edge"><title>\\System&#45;&gt;\\Application</title>
<path fill="none" stroke="black" d="M193.479,-952C172.653,-952 143.373,-952 117.826,-952"/>
<polygon fill="none" stroke="black" points="117.511,-948.5 107.511,-952 117.511,-955.5 117.511,-948.5"/>
</g>
<!-- \\Autoload -->
<g id="node11" class="node"><title>\\Autoload</title>
<a xlink:href="includes._autoload.html" xlink:title="Autoload" target="_parent">
<polygon fill="none" stroke="black" points="437.5,-1132 366.5,-1132 366.5,-1096 437.5,-1096 437.5,-1132"/>
<text text-anchor="middle" x="402" y="-1111.2" font-family="Courier,monospace" font-size="11.00">Autoload</text>
</a>
</g>
<!-- \\BlogController -->
<g id="node12" class="node"><title>\\BlogController</title>
<a xlink:href="modules.blog.controller.html" xlink:title="BlogController" target="_parent">
<polygon fill="none" stroke="black" points="457.5,-1078 346.5,-1078 346.5,-1042 457.5,-1042 457.5,-1078"/>
<text text-anchor="middle" x="402" y="-1057.2" font-family="Courier,monospace" font-size="11.00">BlogController</text>
</a>
</g>
<!-- \\Controller -->
<g id="node15" class="node"><title>\\Controller</title>
<a xlink:href="modules.controller.html" xlink:title="Controller" target="_parent">
<polygon fill="none" stroke="black" points="264,-916 180,-916 180,-880 264,-880 264,-916"/>
<text text-anchor="middle" x="222" y="-895.2" font-family="Courier,monospace" font-size="11.00">Controller</text>
</a>
</g>
<!-- \\BlogController&#45;&gt;\\Controller -->
<g id="edge19" class="edge"><title>\\BlogController&#45;&gt;\\Controller</title>
<path fill="none" stroke="black" d="M349.314,-1041.96C344.587,-1039.32 340.058,-1036.34 336,-1033 291.443,-996.357 304.907,-965.677 264,-925 263.214,-924.219 262.403,-923.447 261.57,-922.686"/>
<polygon fill="none" stroke="black" points="263.573,-919.803 253.625,-916.157 259.129,-925.211 263.573,-919.803"/>
</g>
<!-- \\BlogModel -->
<g id="node13" class="node"><title>\\BlogModel</title>
<a xlink:href="modules.blog.model.html" xlink:title="BlogModel" target="_parent">
<polygon fill="none" stroke="black" points="440.5,-754 363.5,-754 363.5,-718 440.5,-718 440.5,-754"/>
<text text-anchor="middle" x="402" y="-733.2" font-family="Courier,monospace" font-size="11.00">BlogModel</text>
</a>
</g>
<!-- \\Model -->
<g id="node27" class="node"><title>\\Model</title>
<a xlink:href="modules.model.html" xlink:title="Model" target="_parent">
<polygon fill="none" stroke="black" points="249,-646 195,-646 195,-610 249,-610 249,-646"/>
<text text-anchor="middle" x="222" y="-625.2" font-family="Courier,monospace" font-size="11.00">Model</text>
</a>
</g>
<!-- \\BlogModel&#45;&gt;\\Model -->
<g id="edge21" class="edge"><title>\\BlogModel&#45;&gt;\\Model</title>
<path fill="none" stroke="black" d="M363.188,-722.003C354.093,-718.173 344.542,-713.754 336,-709 306.263,-692.452 275.007,-669.563 252.924,-652.337"/>
<polygon fill="none" stroke="black" points="254.952,-649.479 244.932,-646.037 250.618,-654.976 254.952,-649.479"/>
</g>
<!-- \\BlogView -->
<g id="node14" class="node"><title>\\BlogView</title>
<a xlink:href="modules.blog.view.html" xlink:title="BlogView" target="_parent">
<polygon fill="none" stroke="black" points="437.5,-322 366.5,-322 366.5,-286 437.5,-286 437.5,-322"/>
<text text-anchor="middle" x="402" y="-301.2" font-family="Courier,monospace" font-size="11.00">BlogView</text>
</a>
</g>
<!-- \\View -->
<g id="node35" class="node"><title>\\View</title>
<a xlink:href="modules.view.html" xlink:title="View" target="_parent">
<polygon fill="none" stroke="black" points="249,-214 195,-214 195,-178 249,-178 249,-214"/>
<text text-anchor="middle" x="222" y="-193.2" font-family="Courier,monospace" font-size="11.00">View</text>
</a>
</g>
<!-- \\BlogView&#45;&gt;\\View -->
<g id="edge23" class="edge"><title>\\BlogView&#45;&gt;\\View</title>
<path fill="none" stroke="black" d="M366.238,-291.272C356.255,-287.163 345.503,-282.288 336,-277 306.263,-260.452 275.007,-237.563 252.924,-220.337"/>
<polygon fill="none" stroke="black" points="254.952,-217.479 244.932,-214.037 250.618,-222.976 254.952,-217.479"/>
</g>
<!-- \\Controller&#45;&gt;\\Application -->
<g id="edge25" class="edge"><title>\\Controller&#45;&gt;\\Application</title>
<path fill="none" stroke="black" d="M179.9,-912.047C160.798,-918.575 137.821,-926.428 117.313,-933.437"/>
<polygon fill="none" stroke="black" points="116.11,-930.15 107.78,-936.696 118.374,-936.773 116.11,-930.15"/>
</g>
<!-- \\Entity -->
<g id="node16" class="node"><title>\\Entity</title>
<a xlink:href="modules.entity.html" xlink:title="Entity" target="_parent">
<polygon fill="none" stroke="black" points="250.5,-430 193.5,-430 193.5,-394 250.5,-394 250.5,-430"/>
<text text-anchor="middle" x="222" y="-409.2" font-family="Courier,monospace" font-size="11.00">Entity</text>
</a>
</g>
<!-- \\Entity&#45;&gt;\\Application -->
<g id="edge27" class="edge"><title>\\Entity&#45;&gt;\\Application</title>
<path fill="none" stroke="black" d="M215.653,-430.276C192.326,-510 99.3854,-827.645 71.1665,-924.089"/>
<polygon fill="none" stroke="black" points="67.7952,-923.148 68.3461,-933.728 74.5136,-925.114 67.7952,-923.148"/>
</g>
<!-- \\FileController -->
<g id="node17" class="node"><title>\\FileController</title>
<a xlink:href="modules.file.controller.html" xlink:title="FileController" target="_parent">
<polygon fill="none" stroke="black" points="457.5,-1024 346.5,-1024 346.5,-988 457.5,-988 457.5,-1024"/>
<text text-anchor="middle" x="402" y="-1003.2" font-family="Courier,monospace" font-size="11.00">FileController</text>
</a>
</g>
<!-- \\FileController&#45;&gt;\\Controller -->
<g id="edge29" class="edge"><title>\\FileController&#45;&gt;\\Controller</title>
<path fill="none" stroke="black" d="M353.469,-987.889C347.477,-985.134 341.519,-982.15 336,-979 301.259,-959.173 296.719,-948.011 264,-925 262.562,-923.989 261.09,-922.965 259.598,-921.938"/>
<polygon fill="none" stroke="black" points="261.185,-918.785 250.943,-916.073 257.258,-924.58 261.185,-918.785"/>
</g>
<!-- \\FileEntity -->
<g id="node18" class="node"><title>\\FileEntity</title>
<a xlink:href="modules.file.entity.html" xlink:title="FileEntity" target="_parent">
<polygon fill="none" stroke="black" points="444,-430 360,-430 360,-394 444,-394 444,-430"/>
<text text-anchor="middle" x="402" y="-409.2" font-family="Courier,monospace" font-size="11.00">FileEntity</text>
</a>
</g>
<!-- \\FileEntity&#45;&gt;\\Entity -->
<g id="edge31" class="edge"><title>\\FileEntity&#45;&gt;\\Entity</title>
<path fill="none" stroke="black" d="M359.716,-412C329.897,-412 289.933,-412 260.919,-412"/>
<polygon fill="none" stroke="black" points="260.764,-408.5 250.764,-412 260.764,-415.5 260.764,-408.5"/>
</g>
<!-- \\FileModel -->
<g id="node19" class="node"><title>\\FileModel</title>
<a xlink:href="modules.file.model.html" xlink:title="FileModel" target="_parent">
<polygon fill="none" stroke="black" points="440.5,-700 363.5,-700 363.5,-664 440.5,-664 440.5,-700"/>
<text text-anchor="middle" x="402" y="-679.2" font-family="Courier,monospace" font-size="11.00">FileModel</text>
</a>
</g>
<!-- \\FileModel&#45;&gt;\\Model -->
<g id="edge33" class="edge"><title>\\FileModel&#45;&gt;\\Model</title>
<path fill="none" stroke="black" d="M363.251,-670.548C332.444,-661.202 289.21,-648.086 258.911,-638.894"/>
<polygon fill="none" stroke="black" points="259.754,-635.493 249.169,-635.939 257.722,-642.191 259.754,-635.493"/>
</g>
<!-- \\FileView -->
<g id="node20" class="node"><title>\\FileView</title>
<a xlink:href="modules.file.view.html" xlink:title="FileView" target="_parent">
<polygon fill="none" stroke="black" points="437.5,-268 366.5,-268 366.5,-232 437.5,-232 437.5,-268"/>
<text text-anchor="middle" x="402" y="-247.2" font-family="Courier,monospace" font-size="11.00">FileView</text>
</a>
</g>
<!-- \\FileView&#45;&gt;\\View -->
<g id="edge35" class="edge"><title>\\FileView&#45;&gt;\\View</title>
<path fill="none" stroke="black" d="M366.257,-239.46C335.309,-230.071 290.205,-216.388 258.908,-206.893"/>
<polygon fill="none" stroke="black" points="259.852,-203.522 249.267,-203.969 257.82,-210.221 259.852,-203.522"/>
</g>
<!-- \\FrontController -->
<g id="node21" class="node"><title>\\FrontController</title>
<a xlink:href="modules.front.controller.html" xlink:title="FrontController" target="_parent">
<polygon fill="none" stroke="black" points="461,-970 343,-970 343,-934 461,-934 461,-970"/>
<text text-anchor="middle" x="402" y="-949.2" font-family="Courier,monospace" font-size="11.00">FrontController</text>
</a>
</g>
<!-- \\FrontController&#45;&gt;\\Controller -->
<g id="edge37" class="edge"><title>\\FrontController&#45;&gt;\\Controller</title>
<path fill="none" stroke="black" d="M342.716,-934.318C320.471,-927.57 295.308,-919.936 273.812,-913.415"/>
<polygon fill="none" stroke="black" points="274.803,-910.058 264.218,-910.504 272.771,-916.757 274.803,-910.058"/>
</g>
<!-- \\FrontModel -->
<g id="node22" class="node"><title>\\FrontModel</title>
<a xlink:href="modules.front.model.html" xlink:title="FrontModel" target="_parent">
<polygon fill="none" stroke="black" points="444,-646 360,-646 360,-610 444,-610 444,-646"/>
<text text-anchor="middle" x="402" y="-625.2" font-family="Courier,monospace" font-size="11.00">FrontModel</text>
</a>
</g>
<!-- \\FrontModel&#45;&gt;\\Model -->
<g id="edge39" class="edge"><title>\\FrontModel&#45;&gt;\\Model</title>
<path fill="none" stroke="black" d="M359.716,-628C329.348,-628 288.458,-628 259.328,-628"/>
<polygon fill="none" stroke="black" points="259.169,-624.5 249.169,-628 259.169,-631.5 259.169,-624.5"/>
</g>
<!-- \\FrontView -->
<g id="node23" class="node"><title>\\FrontView</title>
<a xlink:href="modules.front.view.html" xlink:title="FrontView" target="_parent">
<polygon fill="none" stroke="black" points="440.5,-214 363.5,-214 363.5,-178 440.5,-178 440.5,-214"/>
<text text-anchor="middle" x="402" y="-193.2" font-family="Courier,monospace" font-size="11.00">FrontView</text>
</a>
</g>
<!-- \\FrontView&#45;&gt;\\View -->
<g id="edge41" class="edge"><title>\\FrontView&#45;&gt;\\View</title>
<path fill="none" stroke="black" d="M363.251,-196C332.578,-196 289.585,-196 259.307,-196"/>
<polygon fill="none" stroke="black" points="259.169,-192.5 249.169,-196 259.169,-199.5 259.169,-192.5"/>
</g>
<!-- \\GalleryController -->
<g id="node24" class="node"><title>\\GalleryController</title>
<a xlink:href="modules.gallery.controller.html" xlink:title="GalleryController" target="_parent">
<polygon fill="none" stroke="black" points="467.5,-916 336.5,-916 336.5,-880 467.5,-880 467.5,-916"/>
<text text-anchor="middle" x="402" y="-895.2" font-family="Courier,monospace" font-size="11.00">GalleryController</text>
</a>
</g>
<!-- \\GalleryController&#45;&gt;\\Controller -->
<g id="edge43" class="edge"><title>\\GalleryController&#45;&gt;\\Controller</title>
<path fill="none" stroke="black" d="M336.486,-898C315.993,-898 293.621,-898 274.199,-898"/>
<polygon fill="none" stroke="black" points="274.041,-894.5 264.041,-898 274.041,-901.5 274.041,-894.5"/>
</g>
<!-- \\GalleryModel -->
<g id="node25" class="node"><title>\\GalleryModel</title>
<a xlink:href="modules.gallery.model.html" xlink:title="GalleryModel" target="_parent">
<polygon fill="none" stroke="black" points="451,-592 353,-592 353,-556 451,-556 451,-592"/>
<text text-anchor="middle" x="402" y="-571.2" font-family="Courier,monospace" font-size="11.00">GalleryModel</text>
</a>
</g>
<!-- \\GalleryModel&#45;&gt;\\Model -->
<g id="edge45" class="edge"><title>\\GalleryModel&#45;&gt;\\Model</title>
<path fill="none" stroke="black" d="M352.831,-588.613C323.251,-597.587 285.988,-608.891 258.978,-617.085"/>
<polygon fill="none" stroke="black" points="257.719,-613.81 249.166,-620.062 259.751,-620.508 257.719,-613.81"/>
</g>
<!-- \\GalleryView -->
<g id="node26" class="node"><title>\\GalleryView</title>
<a xlink:href="modules.gallery.view.html" xlink:title="GalleryView" target="_parent">
<polygon fill="none" stroke="black" points="447.5,-160 356.5,-160 356.5,-124 447.5,-124 447.5,-160"/>
<text text-anchor="middle" x="402" y="-139.2" font-family="Courier,monospace" font-size="11.00">GalleryView</text>
</a>
</g>
<!-- \\GalleryView&#45;&gt;\\View -->
<g id="edge47" class="edge"><title>\\GalleryView&#45;&gt;\\View</title>
<path fill="none" stroke="black" d="M356.083,-155.626C325.997,-164.754 286.919,-176.609 258.905,-185.108"/>
<polygon fill="none" stroke="black" points="257.674,-181.823 249.121,-188.076 259.707,-188.522 257.674,-181.823"/>
</g>
<!-- \\Model&#45;&gt;\\Application -->
<g id="edge49" class="edge"><title>\\Model&#45;&gt;\\Application</title>
<path fill="none" stroke="black" d="M212.053,-646.348C185.601,-700.591 107.662,-860.414 76.2981,-924.731"/>
<polygon fill="none" stroke="black" points="73.0867,-923.331 71.8493,-933.853 79.3784,-926.399 73.0867,-923.331"/>
</g>
<!-- \\TagController -->
<g id="node28" class="node"><title>\\TagController</title>
<a xlink:href="modules.tag.controller.html" xlink:title="TagController" target="_parent">
<polygon fill="none" stroke="black" points="454,-862 350,-862 350,-826 454,-826 454,-862"/>
<text text-anchor="middle" x="402" y="-841.2" font-family="Courier,monospace" font-size="11.00">TagController</text>
</a>
</g>
<!-- \\TagController&#45;&gt;\\Controller -->
<g id="edge51" class="edge"><title>\\TagController&#45;&gt;\\Controller</title>
<path fill="none" stroke="black" d="M349.992,-859.474C326.065,-866.733 297.628,-875.36 273.735,-882.609"/>
<polygon fill="none" stroke="black" points="272.695,-879.266 264.142,-885.519 274.727,-885.965 272.695,-879.266"/>
</g>
<!-- \\TagModel -->
<g id="node29" class="node"><title>\\TagModel</title>
<a xlink:href="modules.tag.model.html" xlink:title="TagModel" target="_parent">
<polygon fill="none" stroke="black" points="437.5,-538 366.5,-538 366.5,-502 437.5,-502 437.5,-538"/>
<text text-anchor="middle" x="402" y="-517.2" font-family="Courier,monospace" font-size="11.00">TagModel</text>
</a>
</g>
<!-- \\TagModel&#45;&gt;\\Model -->
<g id="edge53" class="edge"><title>\\TagModel&#45;&gt;\\Model</title>
<path fill="none" stroke="black" d="M366.238,-532.728C356.255,-536.837 345.503,-541.712 336,-547 306.263,-563.548 275.007,-586.437 252.924,-603.663"/>
<polygon fill="none" stroke="black" points="250.618,-601.024 244.932,-609.963 254.952,-606.521 250.618,-601.024"/>
</g>
<!-- \\TagView -->
<g id="node30" class="node"><title>\\TagView</title>
<a xlink:href="modules.tag.view.html" xlink:title="TagView" target="_parent">
<polygon fill="none" stroke="black" points="434,-106 370,-106 370,-70 434,-70 434,-106"/>
<text text-anchor="middle" x="402" y="-85.2" font-family="Courier,monospace" font-size="11.00">TagView</text>
</a>
</g>
<!-- \\TagView&#45;&gt;\\View -->
<g id="edge55" class="edge"><title>\\TagView&#45;&gt;\\View</title>
<path fill="none" stroke="black" d="M369.901,-99.2396C358.932,-103.638 346.678,-109.058 336,-115 306.263,-131.548 275.007,-154.437 252.924,-171.663"/>
<polygon fill="none" stroke="black" points="250.618,-169.024 244.932,-177.963 254.952,-174.521 250.618,-169.024"/>
</g>
<!-- \\UserController -->
<g id="node31" class="node"><title>\\UserController</title>
<a xlink:href="modules.user.controller.html" xlink:title="UserController" target="_parent">
<polygon fill="none" stroke="black" points="457.5,-808 346.5,-808 346.5,-772 457.5,-772 457.5,-808"/>
<text text-anchor="middle" x="402" y="-787.2" font-family="Courier,monospace" font-size="11.00">UserController</text>
</a>
</g>
<!-- \\UserController&#45;&gt;\\Controller -->
<g id="edge57" class="edge"><title>\\UserController&#45;&gt;\\Controller</title>
<path fill="none" stroke="black" d="M353.88,-808.067C347.761,-810.848 341.659,-813.851 336,-817 306.263,-833.548 275.007,-856.437 252.924,-873.663"/>
<polygon fill="none" stroke="black" points="250.618,-871.024 244.932,-879.963 254.952,-876.521 250.618,-871.024"/>
</g>
<!-- \\UserEntity -->
<g id="node32" class="node"><title>\\UserEntity</title>
<a xlink:href="modules.user.entity.html" xlink:title="UserEntity" target="_parent">
<polygon fill="none" stroke="black" points="444,-376 360,-376 360,-340 444,-340 444,-376"/>
<text text-anchor="middle" x="402" y="-355.2" font-family="Courier,monospace" font-size="11.00">UserEntity</text>
</a>
</g>
<!-- \\UserEntity&#45;&gt;\\Entity -->
<g id="edge59" class="edge"><title>\\UserEntity&#45;&gt;\\Entity</title>
<path fill="none" stroke="black" d="M359.716,-370.524C329.766,-379.61 289.582,-391.801 260.537,-400.612"/>
<polygon fill="none" stroke="black" points="259.317,-397.325 250.764,-403.577 261.349,-404.023 259.317,-397.325"/>
</g>
<!-- \\UserModel -->
<g id="node33" class="node"><title>\\UserModel</title>
<a xlink:href="modules.user.model.html" xlink:title="UserModel" target="_parent">
<polygon fill="none" stroke="black" points="440.5,-484 363.5,-484 363.5,-448 440.5,-448 440.5,-484"/>
<text text-anchor="middle" x="402" y="-463.2" font-family="Courier,monospace" font-size="11.00">UserModel</text>
</a>
</g>
<!-- \\UserModel&#45;&gt;\\Model -->
<g id="edge61" class="edge"><title>\\UserModel&#45;&gt;\\Model</title>
<path fill="none" stroke="black" d="M363.264,-478.097C353.878,-482.044 344.173,-486.994 336,-493 294.932,-523.182 259.421,-571.323 239.652,-601.221"/>
<polygon fill="none" stroke="black" points="236.544,-599.581 234.034,-609.874 242.415,-603.393 236.544,-599.581"/>
</g>
<!-- \\UserView -->
<g id="node34" class="node"><title>\\UserView</title>
<a xlink:href="modules.user.view.html" xlink:title="UserView" target="_parent">
<polygon fill="none" stroke="black" points="437.5,-52 366.5,-52 366.5,-16 437.5,-16 437.5,-52"/>
<text text-anchor="middle" x="402" y="-31.2" font-family="Courier,monospace" font-size="11.00">UserView</text>
</a>
</g>
<!-- \\UserView&#45;&gt;\\View -->
<g id="edge63" class="edge"><title>\\UserView&#45;&gt;\\View</title>
<path fill="none" stroke="black" d="M366.304,-44.8484C356.001,-48.983 345.059,-54.3425 336,-61 294.932,-91.1822 259.421,-139.323 239.652,-169.221"/>
<polygon fill="none" stroke="black" points="236.544,-167.581 234.034,-177.874 242.415,-171.393 236.544,-167.581"/>
</g>
<!-- \\View&#45;&gt;\\Application -->
<g id="edge65" class="edge"><title>\\View&#45;&gt;\\Application</title>
<path fill="none" stroke="black" d="M216.981,-214.232C209.566,-247.932 193.278,-322.26 180,-385 136.239,-591.778 85.427,-841.424 68.6744,-923.994"/>
<polygon fill="none" stroke="black" points="65.2288,-923.375 66.6713,-933.871 72.0891,-924.766 65.2288,-923.375"/>
</g>
</g>
</svg>
