<?xml version="1.0" encoding="UTF-8" standalone="no"?>
<!DOCTYPE svg PUBLIC "-//W3C//DTD SVG 1.1//EN"
 "http://www.w3.org/Graphics/SVG/1.1/DTD/svg11.dtd">
<!-- Generated by graphviz version 2.28.0 (20110507.0327)
 -->
<!-- Title: G Pages: 1 -->
<svg width="670pt" height="1482pt"
 viewBox="0.00 0.00 670.00 1482.00" xmlns="http://www.w3.org/2000/svg" xmlns:xlink="http://www.w3.org/1999/xlink">
<g id="graph1" class="graph" transform="scale(1 1) rotate(0) translate(4 1478)">
<title>G</title>
<polygon fill="white" stroke="white" points="-4,5 -4,-1478 667,-1478 667,5 -4,5"/>
<g id="graph2" class="cluster"><title>cluster_global</title>
<polyline fill="none" stroke="gray" points="20,-44 642,-44 "/>
<path fill="none" stroke="gray" d="M642,-44C648,-44 654,-50 654,-56"/>
<polyline fill="none" stroke="gray" points="654,-56 654,-1454 "/>
<path fill="none" stroke="gray" d="M654,-1454C654,-1460 648,-1466 642,-1466"/>
<polyline fill="none" stroke="gray" points="642,-1466 20,-1466 "/>
<path fill="none" stroke="gray" d="M20,-1466C14,-1466 8,-1460 8,-1454"/>
<polyline fill="none" stroke="gray" points="8,-1454 8,-56 "/>
<path fill="none" stroke="gray" d="M8,-56C8,-50 14,-44 20,-44"/>
<text text-anchor="middle" x="331" y="-1453.2" font-family="Times New Roman,serif" font-size="11.00" fill="gray">global</text>
</g>
<!-- \\DatabaseTest -->
<g id="node2" class="node"><title>\\DatabaseTest</title>
<a xlink:href="tests.database_test.html" xlink:title="DatabaseTest" target="_parent">
<polygon fill="none" stroke="black" points="629,-142 531,-142 531,-106 629,-106 629,-142"/>
<text text-anchor="middle" x="580" y="-121.2" font-family="Courier,monospace" font-size="11.00">DatabaseTest</text>
</a>
</g>
<!-- \\PHPUnit_Framework_TestCase -->
<g id="node39" class="node"><title>\\PHPUnit_Framework_TestCase</title>
<ellipse fill="none" stroke="black" cx="311" cy="-18" rx="130.777" ry="18"/>
<text text-anchor="middle" x="311" y="-14.3" font-family="Times New Roman,serif" font-size="14.00" fill="gray">\PHPUnit_Framework_TestCase</text>
</g>
<!-- \\DatabaseTest&#45;&gt;\\PHPUnit_Framework_TestCase -->
<g id="edge3" class="edge"><title>\\DatabaseTest&#45;&gt;\\PHPUnit_Framework_TestCase</title>
<path fill="none" stroke="black" d="M531.045,-105.866C525.183,-103.132 519.372,-100.159 514,-97 478.82,-76.3085 479.289,-56.5916 442,-40 435.458,-37.0892 428.574,-34.5612 421.528,-32.366"/>
<polygon fill="none" stroke="black" points="422.417,-28.9797 411.839,-29.5742 420.479,-35.706 422.417,-28.9797"/>
</g>
<!-- \\UserTest -->
<g id="node3" class="node"><title>\\UserTest</title>
<a xlink:href="tests.user_test.html" xlink:title="UserTest" target="_parent">
<polygon fill="none" stroke="black" points="615.5,-88 544.5,-88 544.5,-52 615.5,-52 615.5,-88"/>
<text text-anchor="middle" x="580" y="-67.2" font-family="Courier,monospace" font-size="11.00">UserTest</text>
</a>
</g>
<!-- \\UserTest&#45;&gt;\\PHPUnit_Framework_TestCase -->
<g id="edge5" class="edge"><title>\\UserTest&#45;&gt;\\PHPUnit_Framework_TestCase</title>
<path fill="none" stroke="black" d="M544.467,-61.9578C516.822,-55.6358 477.017,-46.793 442,-40 430.501,-37.7693 418.405,-35.5514 406.409,-33.4302"/>
<polygon fill="none" stroke="black" points="406.826,-29.95 396.373,-31.6731 405.619,-36.8452 406.826,-29.95"/>
</g>
<!-- \\Application -->
<g id="node4" class="node"><title>\\Application</title>
<a xlink:href="trunk.includes.application.html" xlink:title="Application" target="_parent">
<polygon fill="none" stroke="black" points="107.5,-1114 16.5,-1114 16.5,-1078 107.5,-1078 107.5,-1114"/>
<text text-anchor="middle" x="62" y="-1093.2" font-family="Courier,monospace" font-size="11.00">Application</text>
</a>
</g>
<!-- \\Cache -->
<g id="node5" class="node"><title>\\Cache</title>
<a xlink:href="trunk.includes.cache.html" xlink:title="Cache" target="_parent">
<polygon fill="none" stroke="black" points="338,-1384 284,-1384 284,-1348 338,-1348 338,-1384"/>
<text text-anchor="middle" x="311" y="-1363.2" font-family="Courier,monospace" font-size="11.00">Cache</text>
</a>
</g>
<!-- \\Cache&#45;&gt;\\Application -->
<g id="edge7" class="edge"><title>\\Cache&#45;&gt;\\Application</title>
<path fill="none" stroke="black" d="M283.758,-1367.07C255.309,-1366.87 209.967,-1362.42 180,-1339 109.395,-1283.81 78.9666,-1175.33 68.1043,-1124.08"/>
<polygon fill="none" stroke="black" points="71.4892,-1123.16 66.0759,-1114.05 64.6282,-1124.55 71.4892,-1123.16"/>
</g>
<!-- \\Control -->
<g id="node6" class="node"><title>\\Control</title>
<a xlink:href="trunk.includes.controls.control.html" xlink:title="Control" target="_parent">
<polygon fill="none" stroke="black" points="343,-1330 279,-1330 279,-1294 343,-1294 343,-1330"/>
<text text-anchor="middle" x="311" y="-1309.2" font-family="Courier,monospace" font-size="11.00">Control</text>
</a>
</g>
<!-- \\Control&#45;&gt;\\Application -->
<g id="edge9" class="edge"><title>\\Control&#45;&gt;\\Application</title>
<path fill="none" stroke="black" d="M278.824,-1296.05C251.328,-1281.2 210.935,-1257.43 180,-1231 141.105,-1197.77 103.762,-1151.32 82.1161,-1122.48"/>
<polygon fill="none" stroke="black" points="84.6883,-1120.07 75.9182,-1114.13 79.0671,-1124.24 84.6883,-1120.07"/>
</g>
<!-- \\File -->
<g id="node7" class="node"><title>\\File</title>
<a xlink:href="trunk.includes.controls.file.html" xlink:title="File" target="_parent">
<polygon fill="none" stroke="black" points="607,-1330 553,-1330 553,-1294 607,-1294 607,-1330"/>
<text text-anchor="middle" x="580" y="-1309.2" font-family="Courier,monospace" font-size="11.00">File</text>
</a>
</g>
<!-- \\File&#45;&gt;\\Control -->
<g id="edge11" class="edge"><title>\\File&#45;&gt;\\Control</title>
<path fill="none" stroke="black" d="M552.913,-1312C506.438,-1312 408.981,-1312 353.314,-1312"/>
<polygon fill="none" stroke="black" points="353.097,-1308.5 343.097,-1312 353.097,-1315.5 353.097,-1308.5"/>
</g>
<!-- \\Relations -->
<g id="node8" class="node"><title>\\Relations</title>
<a xlink:href="trunk.includes.controls.relations.html" xlink:title="Relations" target="_parent">
<polygon fill="none" stroke="black" points="618.5,-1438 541.5,-1438 541.5,-1402 618.5,-1402 618.5,-1438"/>
<text text-anchor="middle" x="580" y="-1417.2" font-family="Courier,monospace" font-size="11.00">Relations</text>
</a>
</g>
<!-- \\Relations&#45;&gt;\\Control -->
<g id="edge13" class="edge"><title>\\Relations&#45;&gt;\\Control</title>
<path fill="none" stroke="black" d="M541.455,-1406.28C532.26,-1402.41 522.596,-1397.91 514,-1393 479.259,-1373.17 478.456,-1355.46 442,-1339 413.809,-1326.27 379.454,-1319.47 353.142,-1315.88"/>
<polygon fill="none" stroke="black" points="353.483,-1312.39 343.122,-1314.61 352.604,-1319.34 353.483,-1312.39"/>
</g>
<!-- \\Tag -->
<g id="node9" class="node"><title>\\Tag</title>
<a xlink:href="trunk.includes.controls.tag.html" xlink:title="Tag" target="_parent">
<polygon fill="none" stroke="black" points="607,-1384 553,-1384 553,-1348 607,-1348 607,-1384"/>
<text text-anchor="middle" x="580" y="-1363.2" font-family="Courier,monospace" font-size="11.00">Tag</text>
</a>
</g>
<!-- \\Tag&#45;&gt;\\Control -->
<g id="edge15" class="edge"><title>\\Tag&#45;&gt;\\Control</title>
<path fill="none" stroke="black" d="M552.913,-1360.72C506.342,-1351.31 408.576,-1331.53 352.967,-1320.29"/>
<polygon fill="none" stroke="black" points="353.592,-1316.84 343.097,-1318.29 352.204,-1323.7 353.592,-1316.84"/>
</g>
<!-- \\Database -->
<g id="node10" class="node"><title>\\Database</title>
<a xlink:href="trunk.includes.database.html" xlink:title="Database" target="_parent">
<polygon fill="none" stroke="black" points="346.5,-1222 275.5,-1222 275.5,-1186 346.5,-1186 346.5,-1222"/>
<text text-anchor="middle" x="311" y="-1201.2" font-family="Courier,monospace" font-size="11.00">Database</text>
</a>
</g>
<!-- \\Database&#45;&gt;\\Application -->
<g id="edge17" class="edge"><title>\\Database&#45;&gt;\\Application</title>
<path fill="none" stroke="black" d="M275.476,-1200.64C248.604,-1197.13 210.824,-1190.22 180,-1177 147.039,-1162.86 113.836,-1138.71 91.2654,-1120.45"/>
<polygon fill="none" stroke="black" points="93.3964,-1117.67 83.4511,-1114.02 88.9477,-1123.08 93.3964,-1117.67"/>
</g>
<!-- \\Sef -->
<g id="node11" class="node"><title>\\Sef</title>
<a xlink:href="trunk.includes.sef.html" xlink:title="Sef" target="_parent">
<polygon fill="none" stroke="black" points="338,-1168 284,-1168 284,-1132 338,-1132 338,-1168"/>
<text text-anchor="middle" x="311" y="-1147.2" font-family="Courier,monospace" font-size="11.00">Sef</text>
</a>
</g>
<!-- \\Sef&#45;&gt;\\Application -->
<g id="edge19" class="edge"><title>\\Sef&#45;&gt;\\Application</title>
<path fill="none" stroke="black" d="M283.572,-1144.69C257.279,-1139.36 215.801,-1130.85 180,-1123 159.625,-1118.53 137.304,-1113.43 117.67,-1108.88"/>
<polygon fill="none" stroke="black" points="118.206,-1105.41 107.672,-1106.55 116.619,-1112.23 118.206,-1105.41"/>
</g>
<!-- \\System -->
<g id="node12" class="node"><title>\\System</title>
<a xlink:href="trunk.includes.system.html" xlink:title="System" target="_parent">
<polygon fill="none" stroke="black" points="339.5,-1114 282.5,-1114 282.5,-1078 339.5,-1078 339.5,-1114"/>
<text text-anchor="middle" x="311" y="-1093.2" font-family="Courier,monospace" font-size="11.00">System</text>
</a>
</g>
<!-- \\System&#45;&gt;\\Application -->
<g id="edge21" class="edge"><title>\\System&#45;&gt;\\Application</title>
<path fill="none" stroke="black" d="M282.146,-1096C242.487,-1096 168.921,-1096 118.032,-1096"/>
<polygon fill="none" stroke="black" points="117.855,-1092.5 107.855,-1096 117.855,-1099.5 117.855,-1092.5"/>
</g>
<!-- \\Autoload -->
<g id="node13" class="node"><title>\\Autoload</title>
<a xlink:href="trunk.includes._autoload.html" xlink:title="Autoload" target="_parent">
<polygon fill="none" stroke="black" points="615.5,-1168 544.5,-1168 544.5,-1132 615.5,-1132 615.5,-1168"/>
<text text-anchor="middle" x="580" y="-1147.2" font-family="Courier,monospace" font-size="11.00">Autoload</text>
</a>
</g>
<!-- \\BlogController -->
<g id="node14" class="node"><title>\\BlogController</title>
<a xlink:href="trunk.modules.blog.controller.html" xlink:title="BlogController" target="_parent">
<polygon fill="none" stroke="black" points="635.5,-1114 524.5,-1114 524.5,-1078 635.5,-1078 635.5,-1114"/>
<text text-anchor="middle" x="580" y="-1093.2" font-family="Courier,monospace" font-size="11.00">BlogController</text>
</a>
</g>
<!-- \\Controller -->
<g id="node17" class="node"><title>\\Controller</title>
<a xlink:href="trunk.modules.controller.html" xlink:title="Controller" target="_parent">
<polygon fill="none" stroke="black" points="353,-1060 269,-1060 269,-1024 353,-1024 353,-1060"/>
<text text-anchor="middle" x="311" y="-1039.2" font-family="Courier,monospace" font-size="11.00">Controller</text>
</a>
</g>
<!-- \\BlogController&#45;&gt;\\Controller -->
<g id="edge23" class="edge"><title>\\BlogController&#45;&gt;\\Controller</title>
<path fill="none" stroke="black" d="M524.324,-1084.94C477.092,-1075.39 409.35,-1061.69 363.17,-1052.35"/>
<polygon fill="none" stroke="black" points="363.575,-1048.86 353.08,-1050.31 362.188,-1055.72 363.575,-1048.86"/>
</g>
<!-- \\BlogModel -->
<g id="node15" class="node"><title>\\BlogModel</title>
<a xlink:href="trunk.modules.blog.model.html" xlink:title="BlogModel" target="_parent">
<polygon fill="none" stroke="black" points="618.5,-790 541.5,-790 541.5,-754 618.5,-754 618.5,-790"/>
<text text-anchor="middle" x="580" y="-769.2" font-family="Courier,monospace" font-size="11.00">BlogModel</text>
</a>
</g>
<!-- \\Model -->
<g id="node29" class="node"><title>\\Model</title>
<a xlink:href="trunk.modules.model.html" xlink:title="Model" target="_parent">
<polygon fill="none" stroke="black" points="338,-790 284,-790 284,-754 338,-754 338,-790"/>
<text text-anchor="middle" x="311" y="-769.2" font-family="Courier,monospace" font-size="11.00">Model</text>
</a>
</g>
<!-- \\BlogModel&#45;&gt;\\Model -->
<g id="edge25" class="edge"><title>\\BlogModel&#45;&gt;\\Model</title>
<path fill="none" stroke="black" d="M541.312,-772C490.047,-772 398.941,-772 348.37,-772"/>
<polygon fill="none" stroke="black" points="348.223,-768.5 338.223,-772 348.223,-775.5 348.223,-768.5"/>
</g>
<!-- \\BlogView -->
<g id="node16" class="node"><title>\\BlogView</title>
<a xlink:href="trunk.modules.blog.view.html" xlink:title="BlogView" target="_parent">
<polygon fill="none" stroke="black" points="615.5,-358 544.5,-358 544.5,-322 615.5,-322 615.5,-358"/>
<text text-anchor="middle" x="580" y="-337.2" font-family="Courier,monospace" font-size="11.00">BlogView</text>
</a>
</g>
<!-- \\View -->
<g id="node37" class="node"><title>\\View</title>
<a xlink:href="trunk.modules.view.html" xlink:title="View" target="_parent">
<polygon fill="none" stroke="black" points="338,-358 284,-358 284,-322 338,-322 338,-358"/>
<text text-anchor="middle" x="311" y="-337.2" font-family="Courier,monospace" font-size="11.00">View</text>
</a>
</g>
<!-- \\BlogView&#45;&gt;\\View -->
<g id="edge27" class="edge"><title>\\BlogView&#45;&gt;\\View</title>
<path fill="none" stroke="black" d="M544.368,-340C493.678,-340 399.721,-340 348.171,-340"/>
<polygon fill="none" stroke="black" points="348.148,-336.5 338.148,-340 348.148,-343.5 348.148,-336.5"/>
</g>
<!-- \\Controller&#45;&gt;\\Application -->
<g id="edge29" class="edge"><title>\\Controller&#45;&gt;\\Application</title>
<path fill="none" stroke="black" d="M268.966,-1050.28C243.356,-1055.51 209.722,-1062.48 180,-1069 159.625,-1073.47 137.304,-1078.57 117.67,-1083.12"/>
<polygon fill="none" stroke="black" points="116.619,-1079.77 107.672,-1085.45 118.206,-1086.59 116.619,-1079.77"/>
</g>
<!-- \\Entity -->
<g id="node18" class="node"><title>\\Entity</title>
<a xlink:href="trunk.modules.entity.html" xlink:title="Entity" target="_parent">
<polygon fill="none" stroke="black" points="339.5,-574 282.5,-574 282.5,-538 339.5,-538 339.5,-574"/>
<text text-anchor="middle" x="311" y="-553.2" font-family="Courier,monospace" font-size="11.00">Entity</text>
</a>
</g>
<!-- \\Entity&#45;&gt;\\Application -->
<g id="edge31" class="edge"><title>\\Entity&#45;&gt;\\Application</title>
<path fill="none" stroke="black" d="M294.843,-574.217C268.424,-606.718 213.559,-677.626 180,-745 123.264,-858.903 84.2738,-1006.71 69.54,-1067.74"/>
<polygon fill="none" stroke="black" points="66.0638,-1067.23 67.1498,-1077.77 72.8731,-1068.85 66.0638,-1067.23"/>
</g>
<!-- \\FileController -->
<g id="node19" class="node"><title>\\FileController</title>
<a xlink:href="trunk.modules.file.controller.html" xlink:title="FileController" target="_parent">
<polygon fill="none" stroke="black" points="635.5,-1060 524.5,-1060 524.5,-1024 635.5,-1024 635.5,-1060"/>
<text text-anchor="middle" x="580" y="-1039.2" font-family="Courier,monospace" font-size="11.00">FileController</text>
</a>
</g>
<!-- \\FileController&#45;&gt;\\Controller -->
<g id="edge33" class="edge"><title>\\FileController&#45;&gt;\\Controller</title>
<path fill="none" stroke="black" d="M524.324,-1042C477.092,-1042 409.35,-1042 363.17,-1042"/>
<polygon fill="none" stroke="black" points="363.08,-1038.5 353.08,-1042 363.08,-1045.5 363.08,-1038.5"/>
</g>
<!-- \\FileEntity -->
<g id="node20" class="node"><title>\\FileEntity</title>
<a xlink:href="trunk.modules.file.entity.html" xlink:title="FileEntity" target="_parent">
<polygon fill="none" stroke="black" points="622,-574 538,-574 538,-538 622,-538 622,-574"/>
<text text-anchor="middle" x="580" y="-553.2" font-family="Courier,monospace" font-size="11.00">FileEntity</text>
</a>
</g>
<!-- \\FileEntity&#45;&gt;\\Entity -->
<g id="edge35" class="edge"><title>\\FileEntity&#45;&gt;\\Entity</title>
<path fill="none" stroke="black" d="M537.866,-556C486.517,-556 399.409,-556 349.711,-556"/>
<polygon fill="none" stroke="black" points="349.701,-552.5 339.701,-556 349.701,-559.5 349.701,-552.5"/>
</g>
<!-- \\FileModel -->
<g id="node21" class="node"><title>\\FileModel</title>
<a xlink:href="trunk.modules.file.model.html" xlink:title="FileModel" target="_parent">
<polygon fill="none" stroke="black" points="618.5,-736 541.5,-736 541.5,-700 618.5,-700 618.5,-736"/>
<text text-anchor="middle" x="580" y="-715.2" font-family="Courier,monospace" font-size="11.00">FileModel</text>
</a>
</g>
<!-- \\FileModel&#45;&gt;\\Model -->
<g id="edge37" class="edge"><title>\\FileModel&#45;&gt;\\Model</title>
<path fill="none" stroke="black" d="M541.312,-725.622C489.939,-736.012 398.56,-754.493 348.053,-764.708"/>
<polygon fill="none" stroke="black" points="347.33,-761.284 338.223,-766.697 348.718,-768.145 347.33,-761.284"/>
</g>
<!-- \\FileView -->
<g id="node22" class="node"><title>\\FileView</title>
<a xlink:href="trunk.modules.file.view.html" xlink:title="FileView" target="_parent">
<polygon fill="none" stroke="black" points="615.5,-304 544.5,-304 544.5,-268 615.5,-268 615.5,-304"/>
<text text-anchor="middle" x="580" y="-283.2" font-family="Courier,monospace" font-size="11.00">FileView</text>
</a>
</g>
<!-- \\FileView&#45;&gt;\\View -->
<g id="edge39" class="edge"><title>\\FileView&#45;&gt;\\View</title>
<path fill="none" stroke="black" d="M544.218,-294.751C516.604,-301.547 476.96,-310.966 442,-318 410.64,-324.31 374.779,-330.286 348.677,-334.414"/>
<polygon fill="none" stroke="black" points="347.819,-331.005 338.48,-336.01 348.902,-337.921 347.819,-331.005"/>
</g>
<!-- \\FrontController -->
<g id="node23" class="node"><title>\\FrontController</title>
<a xlink:href="trunk.modules.front.controller.html" xlink:title="FrontController" target="_parent">
<polygon fill="none" stroke="black" points="639,-1006 521,-1006 521,-970 639,-970 639,-1006"/>
<text text-anchor="middle" x="580" y="-985.2" font-family="Courier,monospace" font-size="11.00">FrontController</text>
</a>
</g>
<!-- \\FrontController&#45;&gt;\\Controller -->
<g id="edge41" class="edge"><title>\\FrontController&#45;&gt;\\Controller</title>
<path fill="none" stroke="black" d="M520.736,-999.784C473.66,-1009.3 408.054,-1022.57 363.027,-1031.68"/>
<polygon fill="none" stroke="black" points="362.288,-1028.26 353.18,-1033.67 363.676,-1035.12 362.288,-1028.26"/>
</g>
<!-- \\FrontModel -->
<g id="node24" class="node"><title>\\FrontModel</title>
<a xlink:href="trunk.modules.front.model.html" xlink:title="FrontModel" target="_parent">
<polygon fill="none" stroke="black" points="622,-682 538,-682 538,-646 622,-646 622,-682"/>
<text text-anchor="middle" x="580" y="-661.2" font-family="Courier,monospace" font-size="11.00">FrontModel</text>
</a>
</g>
<!-- \\FrontModel&#45;&gt;\\Model -->
<g id="edge43" class="edge"><title>\\FrontModel&#45;&gt;\\Model</title>
<path fill="none" stroke="black" d="M537.866,-680.638C485.754,-701.718 396.811,-737.695 347.52,-757.632"/>
<polygon fill="none" stroke="black" points="346.171,-754.402 338.213,-761.397 348.796,-760.892 346.171,-754.402"/>
</g>
<!-- \\FrontView -->
<g id="node25" class="node"><title>\\FrontView</title>
<a xlink:href="trunk.modules.front.view.html" xlink:title="FrontView" target="_parent">
<polygon fill="none" stroke="black" points="618.5,-250 541.5,-250 541.5,-214 618.5,-214 618.5,-250"/>
<text text-anchor="middle" x="580" y="-229.2" font-family="Courier,monospace" font-size="11.00">FrontView</text>
</a>
</g>
<!-- \\FrontView&#45;&gt;\\View -->
<g id="edge45" class="edge"><title>\\FrontView&#45;&gt;\\View</title>
<path fill="none" stroke="black" d="M541.305,-245.466C532.113,-249.338 522.489,-253.91 514,-259 478.517,-280.274 479.656,-300.864 442,-318 412.203,-331.56 375.127,-336.835 348.203,-338.85"/>
<polygon fill="none" stroke="black" points="347.818,-335.368 338.059,-339.492 348.26,-342.354 347.818,-335.368"/>
</g>
<!-- \\GalleryController -->
<g id="node26" class="node"><title>\\GalleryController</title>
<a xlink:href="trunk.modules.gallery.controller.html" xlink:title="GalleryController" target="_parent">
<polygon fill="none" stroke="black" points="645.5,-952 514.5,-952 514.5,-916 645.5,-916 645.5,-952"/>
<text text-anchor="middle" x="580" y="-931.2" font-family="Courier,monospace" font-size="11.00">GalleryController</text>
</a>
</g>
<!-- \\GalleryController&#45;&gt;\\Controller -->
<g id="edge47" class="edge"><title>\\GalleryController&#45;&gt;\\Controller</title>
<path fill="none" stroke="black" d="M534.31,-952.077C486.991,-971.217 412.427,-1001.38 362.881,-1021.42"/>
<polygon fill="none" stroke="black" points="361.279,-1018.29 353.321,-1025.29 363.903,-1024.78 361.279,-1018.29"/>
</g>
<!-- \\GalleryModel -->
<g id="node27" class="node"><title>\\GalleryModel</title>
<a xlink:href="trunk.modules.gallery.model.html" xlink:title="GalleryModel" target="_parent">
<polygon fill="none" stroke="black" points="629,-628 531,-628 531,-592 629,-592 629,-628"/>
<text text-anchor="middle" x="580" y="-607.2" font-family="Courier,monospace" font-size="11.00">GalleryModel</text>
</a>
</g>
<!-- \\GalleryModel&#45;&gt;\\Model -->
<g id="edge49" class="edge"><title>\\GalleryModel&#45;&gt;\\Model</title>
<path fill="none" stroke="black" d="M532.323,-628.087C526.073,-630.885 519.818,-633.886 514,-637 450.902,-670.771 382.712,-719.077 343.896,-747.818"/>
<polygon fill="none" stroke="black" points="341.539,-745.209 335.608,-753.988 345.72,-750.824 341.539,-745.209"/>
</g>
<!-- \\GalleryView -->
<g id="node28" class="node"><title>\\GalleryView</title>
<a xlink:href="trunk.modules.gallery.view.html" xlink:title="GalleryView" target="_parent">
<polygon fill="none" stroke="black" points="625.5,-196 534.5,-196 534.5,-160 625.5,-160 625.5,-196"/>
<text text-anchor="middle" x="580" y="-175.2" font-family="Courier,monospace" font-size="11.00">GalleryView</text>
</a>
</g>
<!-- \\GalleryView&#45;&gt;\\View -->
<g id="edge51" class="edge"><title>\\GalleryView&#45;&gt;\\View</title>
<path fill="none" stroke="black" d="M534.262,-192.294C527.045,-195.768 519.989,-199.97 514,-205 468.399,-243.3 491.629,-285.088 442,-318 414.258,-336.397 376.085,-340.992 348.283,-341.529"/>
<polygon fill="none" stroke="black" points="348.17,-338.03 338.179,-341.557 348.189,-345.03 348.17,-338.03"/>
</g>
<!-- \\Model&#45;&gt;\\Application -->
<g id="edge53" class="edge"><title>\\Model&#45;&gt;\\Application</title>
<path fill="none" stroke="black" d="M296.013,-790.348C254.491,-844.814 131.818,-1005.73 83.1884,-1069.52"/>
<polygon fill="none" stroke="black" points="80.1134,-1067.78 76.8341,-1077.85 85.6802,-1072.02 80.1134,-1067.78"/>
</g>
<!-- \\TagController -->
<g id="node30" class="node"><title>\\TagController</title>
<a xlink:href="trunk.modules.tag.controller.html" xlink:title="TagController" target="_parent">
<polygon fill="none" stroke="black" points="632,-1276 528,-1276 528,-1240 632,-1240 632,-1276"/>
<text text-anchor="middle" x="580" y="-1255.2" font-family="Courier,monospace" font-size="11.00">TagController</text>
</a>
</g>
<!-- \\TagController&#45;&gt;\\Controller -->
<g id="edge55" class="edge"><title>\\TagController&#45;&gt;\\Controller</title>
<path fill="none" stroke="black" d="M527.988,-1241.42C522.903,-1238.46 518.111,-1235.01 514,-1231 457.607,-1175.97 503.331,-1118.46 442,-1069 419.982,-1051.24 389.202,-1044.31 363.12,-1041.9"/>
<polygon fill="none" stroke="black" points="363.241,-1038.39 353.013,-1041.16 362.733,-1045.38 363.241,-1038.39"/>
</g>
<!-- \\TagModel -->
<g id="node31" class="node"><title>\\TagModel</title>
<a xlink:href="trunk.modules.tag.model.html" xlink:title="TagModel" target="_parent">
<polygon fill="none" stroke="black" points="615.5,-898 544.5,-898 544.5,-862 615.5,-862 615.5,-898"/>
<text text-anchor="middle" x="580" y="-877.2" font-family="Courier,monospace" font-size="11.00">TagModel</text>
</a>
</g>
<!-- \\TagModel&#45;&gt;\\Model -->
<g id="edge57" class="edge"><title>\\TagModel&#45;&gt;\\Model</title>
<path fill="none" stroke="black" d="M544.368,-865.992C493.466,-845.402 398.936,-807.165 347.527,-786.371"/>
<polygon fill="none" stroke="black" points="348.731,-783.082 338.148,-782.577 346.106,-789.571 348.731,-783.082"/>
</g>
<!-- \\TagView -->
<g id="node32" class="node"><title>\\TagView</title>
<a xlink:href="trunk.modules.tag.view.html" xlink:title="TagView" target="_parent">
<polygon fill="none" stroke="black" points="612,-466 548,-466 548,-430 612,-430 612,-466"/>
<text text-anchor="middle" x="580" y="-445.2" font-family="Courier,monospace" font-size="11.00">TagView</text>
</a>
</g>
<!-- \\TagView&#45;&gt;\\View -->
<g id="edge59" class="edge"><title>\\TagView&#45;&gt;\\View</title>
<path fill="none" stroke="black" d="M547.849,-435.4C497.965,-415.222 400.433,-375.771 347.771,-354.469"/>
<polygon fill="none" stroke="black" points="348.756,-351.092 338.173,-350.587 346.131,-357.581 348.756,-351.092"/>
</g>
<!-- \\UserController -->
<g id="node33" class="node"><title>\\UserController</title>
<a xlink:href="trunk.modules.user.controller.html" xlink:title="UserController" target="_parent">
<polygon fill="none" stroke="black" points="635.5,-1222 524.5,-1222 524.5,-1186 635.5,-1186 635.5,-1222"/>
<text text-anchor="middle" x="580" y="-1201.2" font-family="Courier,monospace" font-size="11.00">UserController</text>
</a>
</g>
<!-- \\UserController&#45;&gt;\\Controller -->
<g id="edge61" class="edge"><title>\\UserController&#45;&gt;\\Controller</title>
<path fill="none" stroke="black" d="M527.314,-1185.96C522.587,-1183.32 518.058,-1180.34 514,-1177 469.443,-1140.36 489.814,-1101.28 442,-1069 418.995,-1053.47 388.871,-1046.58 363.414,-1043.63"/>
<polygon fill="none" stroke="black" points="363.483,-1040.12 353.189,-1042.62 362.798,-1047.09 363.483,-1040.12"/>
</g>
<!-- \\UserEntity -->
<g id="node34" class="node"><title>\\UserEntity</title>
<a xlink:href="trunk.modules.user.entity.html" xlink:title="UserEntity" target="_parent">
<polygon fill="none" stroke="black" points="622,-520 538,-520 538,-484 622,-484 622,-520"/>
<text text-anchor="middle" x="580" y="-499.2" font-family="Courier,monospace" font-size="11.00">UserEntity</text>
</a>
</g>
<!-- \\UserEntity&#45;&gt;\\Entity -->
<g id="edge63" class="edge"><title>\\UserEntity&#45;&gt;\\Entity</title>
<path fill="none" stroke="black" d="M537.866,-510.319C486.517,-520.704 399.409,-538.322 349.711,-548.373"/>
<polygon fill="none" stroke="black" points="348.808,-544.985 339.701,-550.398 350.196,-551.846 348.808,-544.985"/>
</g>
<!-- \\UserModel -->
<g id="node35" class="node"><title>\\UserModel</title>
<a xlink:href="trunk.modules.user.model.html" xlink:title="UserModel" target="_parent">
<polygon fill="none" stroke="black" points="618.5,-844 541.5,-844 541.5,-808 618.5,-808 618.5,-844"/>
<text text-anchor="middle" x="580" y="-823.2" font-family="Courier,monospace" font-size="11.00">UserModel</text>
</a>
</g>
<!-- \\UserModel&#45;&gt;\\Model -->
<g id="edge65" class="edge"><title>\\UserModel&#45;&gt;\\Model</title>
<path fill="none" stroke="black" d="M541.312,-818.378C489.939,-807.988 398.56,-789.507 348.053,-779.292"/>
<polygon fill="none" stroke="black" points="348.718,-775.855 338.223,-777.303 347.33,-782.716 348.718,-775.855"/>
</g>
<!-- \\UserView -->
<g id="node36" class="node"><title>\\UserView</title>
<a xlink:href="trunk.modules.user.view.html" xlink:title="UserView" target="_parent">
<polygon fill="none" stroke="black" points="615.5,-412 544.5,-412 544.5,-376 615.5,-376 615.5,-412"/>
<text text-anchor="middle" x="580" y="-391.2" font-family="Courier,monospace" font-size="11.00">UserView</text>
</a>
</g>
<!-- \\UserView&#45;&gt;\\View -->
<g id="edge67" class="edge"><title>\\UserView&#45;&gt;\\View</title>
<path fill="none" stroke="black" d="M544.368,-386.996C493.678,-376.744 399.721,-357.741 348.171,-347.315"/>
<polygon fill="none" stroke="black" points="348.644,-343.84 338.148,-345.288 347.256,-350.701 348.644,-343.84"/>
</g>
<!-- \\View&#45;&gt;\\Application -->
<g id="edge69" class="edge"><title>\\View&#45;&gt;\\Application</title>
<path fill="none" stroke="black" d="M293.793,-358.087C266.009,-390.112 209.441,-459.944 180,-529 96.9203,-723.869 71.3347,-982.186 64.8864,-1067.4"/>
<polygon fill="none" stroke="black" points="61.3802,-1067.36 64.1456,-1077.58 68.3618,-1067.86 61.3802,-1067.36"/>
</g>
</g>
</svg>
