<?xml version="1.0" encoding="UTF-8" standalone="no"?>
<svg
   xmlns:dc="http://purl.org/dc/elements/1.1/"
   xmlns:cc="http://creativecommons.org/ns#"
   xmlns:rdf="http://www.w3.org/1999/02/22-rdf-syntax-ns#"
   xmlns:svg="http://www.w3.org/2000/svg"
   xmlns="http://www.w3.org/2000/svg"
   viewBox="0 0 2000 2000"
   height="2000"
   width="2000"
   xml:space="preserve"
   id="svg2"
   version="1.1"><metadata
     id="metadata8"><rdf:RDF><cc:Work
         rdf:about=""><dc:format>image/svg+xml</dc:format><dc:type
           rdf:resource="http://purl.org/dc/dcmitype/StillImage" /></cc:Work></rdf:RDF></metadata><defs
     id="defs6"><clipPath
       id="clipPath20"
       clipPathUnits="userSpaceOnUse"><path
         style="clip-rule:evenodd"
         id="path18"
         d="m 13545.6,13551.8 c -825.5,825.5 -1842.5,930.3 -2917.8,930.3 H 4372.31 c -1075.26,0 -2092.45,-104.8 -2917.9,-930.3 -445.05,-444.9 -930.347,-1112.9 -930.347,-2917.7 V 4378.22 c 0,-1804.8 485.297,-2472.53 930.347,-2917.69 825.45,-825.452 1842.64,-930.233 2917.9,-930.233 h 6255.49 c 1075.3,0 2092.3,104.781 2917.8,930.233 445,445.16 930.2,1112.89 930.2,2917.69 v 6255.88 c 0,1804.8 -485.2,2472.8 -930.2,2917.7" /></clipPath><clipPath
       id="clipPath26"
       clipPathUnits="userSpaceOnUse"><path
         id="path24"
         d="M 0,0 H 15000 V 15000 H 0 Z" /></clipPath><clipPath
       id="clipPath38"
       clipPathUnits="userSpaceOnUse"><path
         style="clip-rule:evenodd"
         id="path36"
         d="m 10965.3,11634.6 c -206.4,0 -409.4,-195.7 -505.4,-486.9 L 9967.83,9390.66 C 9905.81,9201.77 9820.39,9034.31 9737.7,8872.22 9668.91,8737.36 9598.03,8597.8 9542.58,8450.8 l -58.63,-156.52 c -7.22,-18.81 -21.32,-33.9 -39.7,-42 -18.48,-8.09 -37.08,-12.25 -55.56,-12.25 -40.47,0 -112.55,19.8 -143.17,152.36 -2.41,16.84 -94.94,815.61 -630.11,842.63 l -23.08,0.32 c -283.94,0 -426.56,-229.36 -552.35,-573.78 -18.81,-51.73 -85.64,-80.28 -124.57,-80.28 -78.32,3.5 -130.27,52.72 -139.89,128.52 -49.66,382.48 -315.99,660.18 -632.96,660.18 l -24.17,-0.65 c -272.12,-10.39 -529.7,-217.66 -625.19,-504.22 -3.5,-10.39 -8.86,-19.58 -16.18,-27.34 -22.75,-46.16 -66.07,-114.52 -139.89,-114.52 -79.41,0 -126.99,79.19 -155.97,138.91 l -35.88,74.04 c -35.44,73.39 -77,157.72 -122.5,248.07 -147.44,295.75 -331.08,663.9 -416.83,921.63 l -552.56,1852.2 c -88.81,267.6 -292.69,448.9 -506.51,448.9 -60.05,0 -118.35,-14.3 -173.15,-42.4 -254.07,-131.4 -373.18,-517.1 -271.14,-878.3 l 469.44,-1905.22 c 53.81,-190.53 152.47,-448.22 248.06,-697.27 70.66,-184.84 137.6,-359.4 184.85,-502.9 l 195.67,-590.96 c 65.62,-199.17 54.03,-363.23 -34.34,-487.7 -48.57,-69.45 -210.44,-306.8 -367.07,-614.25 -17.28,-33.58 -35.11,-66.39 -52.5,-98.77 -118.56,-218.75 -220.82,-407.64 -73.5,-857.6 68.36,-211.65 155.43,-420.44 298.93,-721.33 150.6,-315.88 322,-486.17 504,-666.1 258.89,-256.7 713.56,-612.72 713.56,-1214.17 V 500 h 3363.83 v 2610.89 c 0,341.14 219.18,878.06 412.34,1351.88 110.84,270.81 206.04,504.76 229.24,630.21 111.6,606.71 460.3,2433.71 463.8,2452.19 87.9,330.86 218.9,889.22 293.7,1249.83 l 406.3,1976.6 c 74.3,361.4 -46.7,736.9 -269.8,836.9 -39.2,17.2 -80.9,26.1 -123.8,26.1 z" /></clipPath><clipPath
       id="clipPath44"
       clipPathUnits="userSpaceOnUse"><path
         id="path42"
         d="M 0,0 H 15000 V 15000 H 0 Z" /></clipPath></defs><g
     transform="matrix(1.3333333,0,0,-1.3333333,0,2000)"
     id="g10"><g
       transform="scale(0.1)"
       id="g12"><g
         id="g14"><g
           clip-path="url(#clipPath20)"
           id="g16"><g
             clip-path="url(#clipPath26)"
             id="g22"><path
               id="path28"
               style="fill:#002eff;fill-opacity:1;fill-rule:nonzero;stroke:none"
               d="m 474.063,480.297 h 14051.8 v 14051.8 H 474.063 Z" /><path
               id="path30"
               style="fill:#002eff;fill-opacity:1;fill-rule:nonzero;stroke:none"
               d="m 474.063,480.297 h 14051.8 v 14051.8 H 474.063 Z" /></g></g></g><g
         id="g32"><g
           clip-path="url(#clipPath38)"
           id="g34"><g
             clip-path="url(#clipPath44)"
             id="g40"><path
               id="path46"
               style="fill:#ffffff;fill-opacity:1;fill-rule:nonzero;stroke:none"
               d="m 4016.14,450 h 7414.64 V 12457 H 4016.14 Z" /></g></g></g></g></g></svg>